<svg width="30" height="32" viewBox="0 0 30 32" fill="none" xmlns="http://www.w3.org/2000/svg">
<path d="M15.0009 0.160156C14.8468 0.160156 14.6784 0.218447 14.5622 0.306406L1.24219 10.3864C1.06722 10.5209 0.960074 10.7395 0.960943 10.9602V14.5602C0.960981 14.9371 1.30396 15.2801 1.68094 15.2802H3.84094V26.8002H1.68094C1.28898 26.8002 0.960943 27.1957 0.960943 27.5202V31.1202C0.960981 31.4971 1.30396 31.8401 1.68094 31.8402H28.3209C28.6979 31.8401 29.0409 31.4971 29.0409 31.1202V27.5202C29.0409 27.1432 28.6979 26.8002 28.3209 26.8002H26.1609V15.2802H28.3209C28.6979 15.2801 29.0409 14.9371 29.0409 14.5602V10.9602C29.0418 10.7395 28.9347 10.5209 28.7597 10.3864L15.4397 0.306406C15.3055 0.204848 15.1551 0.160156 15.0009 0.160156ZM15.0009 1.79141L27.6009 11.3202V13.8402H2.40094V11.3202L15.0009 1.79141ZM15.0009 3.76016C14.6615 3.76016 14.2809 4.12423 14.2809 4.48016V4.93016C13.2763 5.18636 12.4809 5.9668 12.4809 7.00016C12.4809 8.52409 13.5284 8.7806 14.7984 9.13766C15.4619 9.2731 16.0809 9.50474 16.0809 9.88016C16.0809 10.1451 15.6707 10.6002 15.0009 10.6002C14.4379 10.6002 13.9547 10.2165 13.8872 10.0152C13.7917 9.73113 13.497 9.52983 13.2009 9.52016C12.7355 9.52016 12.4809 9.90455 12.4809 10.2402C12.4809 10.8363 13.188 11.7388 14.2809 11.9502V12.4002C14.2809 12.8087 14.6615 13.1202 15.0009 13.1202C15.3404 13.1202 15.7209 12.7561 15.7209 12.4002V11.9502C16.7256 11.694 17.5209 10.9135 17.5209 9.88016C17.5209 8.44586 16.4735 8.09971 15.2034 7.74266C14.54 7.60721 13.9209 7.37557 13.9209 7.00016C13.9209 6.73523 14.3311 6.28016 15.0009 6.28016C15.564 6.28016 16.0472 6.66379 16.1147 6.86516C16.2101 7.14918 16.5049 7.35049 16.8009 7.36016C17.2664 7.36016 17.5209 6.97577 17.5209 6.64016C17.5209 6.04398 16.8139 5.14154 15.7209 4.93016V4.48016C15.7209 4.07162 15.3404 3.76016 15.0009 3.76016ZM5.28094 15.2802H7.44094V26.8002H5.28094V15.2802ZM8.88094 15.2802H12.4809V26.8002H8.88094V15.2802ZM13.9209 15.2802H16.0809V26.8002H13.9209V15.2802ZM17.5209 15.2802H21.1209V26.8002H17.5209V15.2802ZM22.5609 15.2802H24.7209V26.8002H22.5609V15.2802ZM2.40094 28.2402H27.6009V30.4002H2.40094V28.2402Z" fill="white"/>
</svg>
