<svg width="50" height="110" viewBox="0 0 50 110" fill="none" xmlns="http://www.w3.org/2000/svg">
<path d="M24.7214 107.22C24.458 106.807 24.1608 106.341 23.8373 105.831C22.5577 103.816 20.8671 101.131 19.2197 98.4477C17.5694 95.7597 15.9742 93.0925 14.8793 91.1059C14.6481 90.6863 14.4434 90.3047 14.2675 89.965H17.3419H18.8632L18.8417 88.4438L18.7187 79.7564L18.7029 78.64L17.629 78.3347C15.1535 77.6311 12.9841 76.7126 11.0704 75.3687L11.0456 75.3514L11.0202 75.335C9.07468 74.0826 7.34812 72.4812 5.96565 70.7619L5.95846 70.7531C4.46629 68.9261 3.44118 67.1135 2.63656 64.9408C1.88992 62.9246 1.54159 60.9037 1.50352 58.7637H16.6094C16.8 60.4222 17.889 61.7468 19.2914 62.7615L19.329 62.7887L19.3683 62.8136C20.9473 63.8132 22.6993 64.3922 24.8444 64.3922C27.0012 64.3922 29.1169 63.6787 30.6731 62.1458C32.2064 60.7505 33.1089 59.1605 33.1089 57.386C33.1089 57.3509 33.109 57.3144 33.1091 57.2769C33.1102 56.7834 33.1118 56.0957 32.9274 55.5008C32.7161 54.7042 32.2997 54.122 31.8059 53.6308L31.7806 53.6056L31.7541 53.5817C30.8859 52.7964 29.6514 52.1363 28.2103 51.5469C26.7479 50.9488 24.9622 50.38 22.9048 49.8217C19.8979 48.9838 17.2529 48.0268 14.9696 47.0704C12.7269 46.1309 10.8816 45.0923 9.28722 43.8461L9.27605 43.8373L9.26472 43.8288C4.09831 39.9454 1.62299 35.0015 1.62299 28.7542C1.62299 26.0766 2.29382 23.5204 3.63755 21.1809C4.99963 18.8096 6.8152 16.7683 9.34733 14.9327C11.9076 13.1991 14.6994 11.9269 17.7299 11.1152L18.8419 10.8174V9.6663V1.5H31.0928V9.78866V10.9167L32.1766 11.2298C35.7922 12.274 39.0139 14.0009 41.6441 16.5038C44.193 18.9293 45.9713 21.6414 47.0168 24.7523L32.7603 29.3237C32.1879 27.8732 31.0706 26.7422 29.5211 26.0415C28.0369 25.3703 26.47 24.9294 24.8444 24.9294C22.6008 24.9294 20.7254 25.3198 19.3221 26.0954C18.2081 26.7111 17.2994 27.3466 16.8337 28.0415L16.5798 28.4204V28.8766C16.5798 29.2444 16.6726 29.551 16.7344 29.7355C16.7632 29.8214 16.7955 29.9092 16.8205 29.9772L16.8276 29.9965C16.8562 30.0741 16.8803 30.1404 16.9035 30.2096C17.153 30.9544 17.7613 31.6805 18.5767 32.1913C19.3585 32.7912 20.4706 33.3275 21.532 33.7968C22.7258 34.3247 24.5296 34.9629 26.6967 35.4715C28.9522 36.0631 31.3484 36.8961 33.9061 37.8654C36.3337 38.7854 38.5381 40.0518 40.6417 41.678C43.0561 43.6249 44.8747 45.8954 46.123 48.492C47.354 51.0528 47.9427 53.9987 47.9427 57.7531C47.9427 62.533 46.3491 66.9689 43.1216 70.8678L43.1167 70.8738L43.1118 70.8797C40.2327 74.4314 36.4311 76.9587 31.9078 78.3433L30.8469 78.6681V79.7776V79.7948V79.812V79.8292V79.8464V79.8636V79.8808V79.898V79.9152V79.9323V79.9495V79.9667V79.9839V80.0011V80.0182V80.0354V80.0526V80.0697V80.0869V80.104V80.1212V80.1383V80.1555V80.1726V80.1898V80.2069V80.2241V80.2412V80.2583V80.2755V80.2926V80.3097V80.3268V80.344V80.3611V80.3782V80.3953V80.4124V80.4295V80.4466V80.4637V80.4808V80.4979V80.515V80.5321V80.5492V80.5663V80.5834V80.6005V80.6176V80.6347V80.6517V80.6688V80.6859V80.703V80.72V80.7371V80.7542V80.7712V80.7883V80.8053V80.8224V80.8395V80.8565V80.8736V80.8906V80.9077V80.9247V80.9417V80.9588V80.9758V80.9929V81.0099V81.0269V81.044V81.061V81.078V81.095V81.1121V81.1291V81.1461V81.1631V81.1801V81.1971V81.2142V81.2312V81.2482V81.2652V81.2822V81.2992V81.3162V81.3332V81.3502V81.3672V81.3842V81.4012V81.4181V81.4351V81.4521V81.4691V81.4861V81.5031V81.52V81.537V81.554V81.571V81.5879V81.6049V81.6219V81.6388V81.6558V81.6728V81.6897V81.7067V81.7237V81.7406V81.7576V81.7745V81.7915V81.8084V81.8254V81.8423V81.8593V81.8762V81.8932V81.9101V81.927V81.944V81.9609V81.9779V81.9948V82.0117V82.0287V82.0456V82.0625V82.0795V82.0964V82.1133V82.1302V82.1472V82.1641V82.181V82.1979V82.2148V82.2318V82.2487V82.2656V82.2825V82.2994V82.3163V82.3332V82.3502V82.3671V82.384V82.4009V82.4178V82.4347V82.4516V82.4685V82.4854V82.5023V82.5192V82.5361V82.553V82.5699V82.5868V82.6037V82.6205V82.6374V82.6543V82.6712V82.6881V82.705V82.7219V82.7388V82.7556V82.7725V82.7894V82.8063V82.8232V82.8401V82.8569V82.8738V82.8907V82.9076V82.9244V82.9413V82.9582V82.9751V82.9919V83.0088V83.0257V83.0426V83.0594V83.0763V83.0932V83.11V83.1269V83.1438V83.1606V83.1775V83.1944V83.2112V83.2281V83.245V83.2618V83.2787V83.2955V83.3124V83.3293V83.3461V83.363V83.3798V83.3967V83.4136V83.4304V83.4473V83.4641V83.481V83.4978V83.5147V83.5316V83.5484V83.5653V83.5821V83.599V83.6158V83.6327V83.6495V83.6664V83.6832V83.7001V83.7169V83.7338V83.7506V83.7675V83.7843V83.8012V83.818V83.8349V83.8517V83.8686V83.8854V83.9023V83.9191V83.936V83.9528V83.9697V83.9865V84.0034V84.0202V84.0371V84.0539V84.0708V84.0876V84.1045V84.1213V84.1382V84.155V84.1719V84.1887V84.2056V84.2224V84.2393V84.2561V84.273V84.2898V84.3066V84.3235V84.3403V84.3572V84.374V84.3909V84.4077V84.4246V84.4414V84.4583V84.4752V84.492V84.5089V84.5257V84.5425V84.5594V84.5763V84.5931V84.61V84.6268V84.6437V84.6605V84.6774V84.6942V84.7111V84.7279V84.7448V84.7617V84.7785V84.7954V84.8122V84.8291V84.8459V84.8628V84.8797V84.8965V84.9134V84.9302V84.9471V84.964V84.9808V84.9977V85.0145V85.0314V85.0483V85.0651V85.082V85.0989V85.1157V85.1326V85.1495V85.1663V85.1832V85.2001V85.2169V85.2338V85.2507V85.2676V85.2844V85.3013V85.3182V85.3351V85.3519V85.3688V85.3857V85.4026V85.4195V85.4363V85.4532V85.4701V85.487V85.5039V85.5208V85.5376V85.5545V85.5714V85.5883V85.6052V85.6221V85.639V85.6559V85.6728V85.6897V85.7066V85.7235V85.7404V85.7573V85.7742V85.7911V85.808V85.8249V85.8418V85.8587V85.8756V85.8925V85.9094V85.9263V85.9432V85.9601V85.977V85.994V86.0109V86.0278V86.0447V86.0616V86.0786V86.0955V86.1124V86.1293V86.1462V86.1632V86.1801V86.197V86.214V86.2309V86.2478V86.2648V86.2817V86.2986V86.3156V86.3325V86.3495V86.3664V86.3834V86.4003V86.4173V86.4342V86.4512V86.4681V86.4851V86.502V86.519V86.5359V86.5529V86.5699V86.5868V86.6038V86.6208V86.6377V86.6547V86.6717V86.6886V86.7056V86.7226V86.7396V86.7566V86.7735V86.7905V86.8075V86.8245V86.8415V86.8585V86.8755V86.8925V86.9095V86.9265V86.9435V86.9605V86.9775V86.9945V87.0115V87.0285V87.0455V87.0625V87.0795V87.0965V87.1136V87.1306V87.1476V87.1646V87.1816V87.1987V87.2157V87.2327V87.2498V87.2668V87.2839V87.3009V87.3179V87.335V87.352V87.3691V87.3861V87.4032V87.4202V87.4373V87.4544V87.4714V87.4885V87.5055V87.5226V87.5397V87.5568V87.5738V87.5909V87.608V87.6251V87.6422V87.6592V87.6763V87.6934V87.7105V87.7276V87.7447V87.7618V87.7789V87.796V87.8131V87.8302V87.8473V87.8644V87.8816V87.8987V87.9158V87.9329V87.9501V87.9672V87.9843V88.0014V88.0186V88.0357V88.0529V88.07V88.0872V88.1043V88.1215V88.1386V88.1558V88.1729V88.1901V88.2073V88.2244V88.2416V88.2588V88.2759V88.2931V88.3103V88.3275V88.3447V88.3619V88.379V88.3962V88.4134V88.4306V88.4478V88.465V89.965H32.3469H32.3562H32.3656H32.375H32.3844H32.3937H32.4031H32.4125H32.4219H32.4313H32.4407H32.4501H32.4595H32.4689H32.4783H32.4877H32.4971H32.5065H32.5159H32.5254H32.5348H32.5442H32.5536H32.5631H32.5725H32.5819H32.5914H32.6008H32.6102H32.6197H32.6291H32.6386H32.648H32.6575H32.6669H32.6764H32.6859H32.6953H32.7048H32.7143H32.7237H32.7332H32.7427H32.7522H32.7616H32.7711H32.7806H32.7901H32.7996H32.8091H32.8186H32.8281H32.8376H32.8471H32.8566H32.8661H32.8756H32.8851H32.8946H32.9041H32.9136H32.9232H32.9327H32.9422H32.9517H32.9613H32.9708H32.9803H32.9899H32.9994H33.0089H33.0185H33.028H33.0376H33.0471H33.0566H33.0662H33.0757H33.0853H33.0949H33.1044H33.114H33.1235H33.1331H33.1427H33.1522H33.1618H33.1714H33.1809H33.1905H33.2001H33.2097H33.2193H33.2288H33.2384H33.248H33.2576H33.2672H33.2768H33.2864H33.296H33.3056H33.3152H33.3247H33.3344H33.344H33.3536H33.3632H33.3728H33.3824H33.392H33.4016H33.4112H33.4208H33.4305H33.4401H33.4497H33.4593H33.4689H33.4786H33.4882H33.4978H33.5074H33.5171H33.5267H33.5363H33.546H33.5556H33.5653H33.5749H33.5845H33.5942H33.6038H33.6135H33.6231H33.6328H33.6424H33.6521H33.6617H33.6714H33.681H33.6907H33.7003H33.71H33.7196H33.7293H33.739H33.7486H33.7583H33.768H33.7776H33.7873H33.797H33.8066H33.8163H33.826H33.8356H33.8453H33.855H33.8647H33.8744H33.884H33.8937H33.9034H33.9131H33.9228H33.9324H33.9421H33.9518H33.9615H33.9712H33.9809H33.9906H34.0003H34.0099H34.0196H34.0293H34.039H34.0487H34.0584H34.0681H34.0778H34.0875H34.0972H34.1069H34.1166H34.1263H34.136H34.1457H34.1554H34.1651H34.1748H34.1845H34.1942H34.2039H34.2137H34.2234H34.2331H34.2428H34.2525H34.2622H34.2719H34.2816H34.2913H34.3011H34.3108H34.3205H34.3302H34.3399H34.3496H34.3593H34.3691H34.3788H34.3885H34.3982H34.4079H34.4177H34.4274H34.4371H34.4468H34.4565H34.4663H34.476H34.4857H34.4954H34.5052H34.5149H34.5246H34.5343H34.5441H34.5538H34.5635H34.5732H34.583H34.5927H34.6024H34.6121H34.6219H34.6316H34.6413H34.651H34.6608H34.6705H34.6802H34.69H34.6997H34.7094H34.7191H34.7289H34.7386H34.7483H34.7581H34.7678H34.7775H34.7872H34.797H34.8067H34.8164H34.8262H34.8359H34.8456H34.8553H34.8651H34.8748H34.8845H34.8943H34.904H34.9137H34.9234H34.9332H34.9429H34.9526H34.9624H34.9721H34.9818H34.9915H35.0013H35.011H35.0207H35.0304H35.0402H35.0499H35.0596H35.0693H35.0791H35.0888H35.0985H35.1082H35.118H35.1277H35.1374H35.1471H35.1569H35.1666H35.1752C34.9993 90.3047 34.7947 90.6863 34.5634 91.1059C33.4685 93.0925 31.8734 95.7597 30.223 98.4477C28.5757 101.131 26.8851 103.816 25.6055 105.831C25.2819 106.341 24.9848 106.807 24.7214 107.22ZM47.3562 24.6381C47.3563 24.6381 47.3554 24.6387 47.3535 24.6398C47.3552 24.6387 47.3562 24.6381 47.3562 24.6381ZM18.3233 1.50002C18.3215 1.50012 18.3206 1.50014 18.3206 1.50012L18.3233 1.50002ZM16.5798 58.2405C16.5797 58.2391 16.5797 58.2384 16.5797 58.2384L16.5798 58.2405ZM1.15698 58.7688C1.15692 58.7687 1.15866 58.7683 1.1624 58.7677C1.15892 58.7686 1.15705 58.7689 1.15698 58.7688Z" stroke="white" stroke-width="3"/>
</svg>
