<svg width="20" height="20" viewBox="0 0 20 20" fill="none" xmlns="http://www.w3.org/2000/svg">
<path d="M9.79038 2.007C12.3275 2.007 12.6286 2.01593 13.6299 2.06185C14.556 2.10395 15.0586 2.25957 15.3941 2.38968C15.8085 2.5417 16.1834 2.78496 16.4911 3.10146C16.8068 3.40759 17.0496 3.78076 17.2016 4.19337C17.3292 4.52885 17.486 5.03144 17.5294 5.95752C17.5741 6.95886 17.5843 7.2599 17.5843 9.79579C17.5843 12.3317 17.5741 12.634 17.5294 13.6353C17.486 14.5614 17.3317 15.064 17.2016 15.3995C17.0435 15.809 16.8015 16.1809 16.491 16.4914C16.1806 16.8018 15.8087 17.0438 15.3992 17.2019C15.0637 17.3295 14.5611 17.4864 13.635 17.5297C12.6337 17.5744 12.3326 17.5846 9.79548 17.5846C7.25832 17.5846 6.95856 17.5744 5.95721 17.5297C5.03113 17.4864 4.52855 17.332 4.19306 17.2019C3.77944 17.0515 3.40494 16.81 3.09733 16.4952C2.78193 16.1889 2.53915 15.8158 2.38682 15.4033C2.25926 15.0678 2.10109 14.5652 2.05899 13.6392C2.01307 12.6378 2.00414 12.3368 2.00414 9.79962C2.00414 7.26246 2.01307 6.96269 2.05899 5.96135C2.10109 5.03526 2.25671 4.53268 2.38682 4.1972C2.53833 3.78321 2.78118 3.40869 3.09733 3.10146C3.40345 2.78579 3.77662 2.54297 4.18924 2.39095C4.52472 2.2634 5.0273 2.10522 5.95339 2.06313C6.95473 2.01721 7.25577 2.00828 9.79165 2.00828L9.79038 2.007ZM9.79038 0.295151C7.21112 0.295151 6.88712 0.306631 5.8743 0.352553C5.08612 0.368233 4.3063 0.517468 3.56802 0.793909C2.93405 1.03222 2.35982 1.40619 1.88551 1.88965C1.40205 2.36396 1.02808 2.93819 0.789774 3.57216C0.513333 4.31044 0.364098 5.09025 0.348417 5.87843C0.302496 6.89126 0.291016 7.21526 0.291016 9.79451C0.291016 12.3738 0.302496 12.699 0.348417 13.7119C0.364098 14.5001 0.513333 15.2799 0.789774 16.0181C1.02808 16.6521 1.40205 17.2263 1.88551 17.7007C2.36033 18.1823 2.93452 18.5545 3.56802 18.7913C4.3063 19.0677 5.08612 19.217 5.8743 19.2326C6.88712 19.2786 7.21112 19.29 9.79038 19.29C12.3696 19.29 12.6949 19.2786 13.7077 19.2326C14.4959 19.217 15.2757 19.0677 16.014 18.7913C16.6436 18.5471 17.2153 18.1744 17.6928 17.6969C18.1703 17.2195 18.543 16.6477 18.7872 16.0181C19.0636 15.2799 19.2128 14.5001 19.2285 13.7119C19.2744 12.699 19.2859 12.375 19.2859 9.79451C19.2859 7.21398 19.2744 6.89126 19.2285 5.87843C19.2128 5.09025 19.0636 4.31044 18.7872 3.57216C18.5488 2.93819 18.1749 2.36396 17.6914 1.88965C17.2171 1.40619 16.6429 1.03222 16.0089 0.793909C15.2722 0.518033 14.4942 0.368808 13.7077 0.352553C12.6949 0.306631 12.3709 0.295151 9.79038 0.295151Z" fill="white"/>
<path d="M9.79127 4.91663C8.82621 4.91663 7.88282 5.20282 7.08042 5.739C6.27802 6.27519 5.65265 7.03728 5.28339 7.9289C4.91414 8.82053 4.81759 9.80163 5.00596 10.7481C5.19432 11.6946 5.65914 12.564 6.34163 13.2463C7.02412 13.9286 7.89362 14.3932 8.84017 14.5813C9.78672 14.7695 10.7678 14.6727 11.6593 14.3032C12.5508 13.9337 13.3128 13.3081 13.8488 12.5056C14.3847 11.703 14.6707 10.7596 14.6704 9.7945C14.6704 9.15382 14.5442 8.51942 14.299 7.92753C14.0538 7.33563 13.6944 6.79784 13.2413 6.34487C12.7882 5.8919 12.2503 5.53263 11.6583 5.28757C11.0664 5.04251 10.4319 4.91646 9.79127 4.91663ZM9.79127 12.9618C9.16483 12.9618 8.55247 12.776 8.03161 12.428C7.51075 12.08 7.10478 11.5853 6.86506 11.0066C6.62533 10.4278 6.56261 9.79099 6.68482 9.17659C6.80703 8.5622 7.10869 7.99784 7.55164 7.55488C7.9946 7.11193 8.55896 6.81027 9.17336 6.68806C9.78775 6.56585 10.4246 6.62857 11.0033 6.8683C11.5821 7.10802 12.0768 7.51398 12.4248 8.03484C12.7728 8.5557 12.9586 9.16807 12.9586 9.7945C12.9586 10.6345 12.6249 11.4401 12.0309 12.0341C11.4369 12.6281 10.6313 12.9618 9.79127 12.9618Z" fill="white"/>
<path d="M14.863 5.8644C15.4929 5.8644 16.0034 5.35383 16.0034 4.72402C16.0034 4.0942 15.4929 3.58363 14.863 3.58363C14.2332 3.58363 13.7227 4.0942 13.7227 4.72402C13.7227 5.35383 14.2332 5.8644 14.863 5.8644Z" fill="white"/>
</svg>
