<svg width="49" height="69" viewBox="0 0 49 69" fill="none" xmlns="http://www.w3.org/2000/svg">
<path d="M24.0792 0C10.8016 0 0 10.2368 0 22.8202C0 34.9107 21.8376 66.2406 22.7672 67.5682C23.0592 67.9844 23.5512 68.2354 24.0792 68.2354C24.6072 68.2354 25.1 67.9844 25.392 67.5674C26.3208 66.2398 48.1592 34.91 48.1592 22.8194C48.1584 10.2368 37.3568 0 24.0792 0ZM24.0792 64.0017C19.3032 56.956 3.1504 32.4125 3.1504 22.8202C3.1504 11.8836 12.5392 2.98568 24.0792 2.98568C35.6192 2.98568 45.008 11.8836 45.008 22.8202C45.008 32.4095 28.8552 56.9553 24.0792 64.0017Z" fill="#2056BA"/>
<path d="M24.0804 10.7598C16.8404 10.7598 10.9492 16.3422 10.9492 23.2043C10.9492 30.0658 16.8396 35.6489 24.0804 35.6489C31.3221 35.6489 37.2125 30.0665 37.2125 23.2043C37.2125 16.3422 31.3221 10.7598 24.0804 10.7598ZM24.0804 32.6633C18.5772 32.6633 14.0996 28.4198 14.0996 23.2043C14.0996 17.9881 18.5772 13.7454 24.0804 13.7454C29.5845 13.7454 34.0621 17.9881 34.0621 23.2043C34.0621 28.4198 29.5845 32.6633 24.0804 32.6633Z" fill="#2056BA"/>
</svg>
