<svg width="20" height="19" viewBox="0 0 20 19" fill="none" xmlns="http://www.w3.org/2000/svg">
<path d="M5.53353 0.0166016L9.80153 4.3622L7.62353 6.5798L12.5735 11.6198L14.7515 9.4022L19.0195 13.7478L15.3675 17.4662C14.8497 18.0017 14.1591 18.3283 13.4232 18.386C12.6873 18.4436 11.9557 18.2283 11.3635 17.7798L11.1875 17.6454C7.56626 14.9244 4.36952 11.662 1.70553 7.9686L1.57353 7.7894C1.13303 7.18643 0.92157 6.44159 0.978178 5.69231C1.03478 4.94303 1.35564 4.23988 1.88153 3.7126L5.53353 0.0166016ZM2.98153 6.7366L3.11353 6.9158C5.67934 10.4653 8.75746 13.5993 12.2435 16.2118L12.4195 16.3462C12.6723 16.5411 12.9864 16.635 13.3026 16.6102C13.6187 16.5855 13.915 16.4437 14.1355 16.2118L16.5335 13.7478L14.7515 11.9334L12.5735 14.151L5.13753 6.5798L7.31553 4.3622L5.53353 2.5478L3.11353 4.9894C2.88574 5.21396 2.74655 5.51565 2.72223 5.83752C2.69791 6.1594 2.79015 6.47921 2.98153 6.7366Z" fill="white"/>
</svg>
