<svg width="78" height="78" viewBox="0 0 78 78" fill="none" xmlns="http://www.w3.org/2000/svg">
<path d="M40.9993 24.37C40.7393 25.12 40.4793 25.88 40.2293 26.64C39.3997 29.5991 38.1718 32.4317 36.5793 35.06C34.7908 37.7922 32.5683 40.2141 29.9993 42.23C28.6119 43.1276 27.1459 43.8975 25.6193 44.53C23.9517 45.2285 22.3403 46.0543 20.7993 47C19.9946 47.5406 19.2201 48.1248 18.4793 48.75C17.1293 49.86 15.9493 50.81 14.7293 50.91H14.1193C11.9076 50.9262 9.73378 51.486 7.78931 52.54C0.109315 57.08 0.429314 67.19 0.559314 71.54C0.582723 72.32 0.909098 73.0601 1.46919 73.6034C2.02928 74.1467 2.77902 74.4504 3.55931 74.45H3.65931C4.05333 74.4384 4.4412 74.3492 4.80073 74.1876C5.16027 74.026 5.48443 73.7951 5.75468 73.5081C6.02493 73.2211 6.23598 72.8837 6.37576 72.5151C6.51554 72.1466 6.58131 71.7541 6.56931 71.36C6.38931 65.71 6.78931 60.15 10.8593 57.74C12.0149 57.1985 13.2843 56.9446 14.5593 57H15.2093C18.2993 56.75 20.4993 55 22.2693 53.5C22.8421 52.9683 23.443 52.4676 24.0693 52C25.3518 51.2362 26.6888 50.5678 28.0693 50C29.9348 49.2196 31.7226 48.2654 33.4093 47.15C36.5878 44.7091 39.3444 41.7633 41.5693 38.43C43.4816 35.3528 44.9558 32.0242 45.9493 28.54C46.1893 27.81 46.4393 27.08 46.6693 26.41C46.7493 26.22 46.8993 25.96 47.0593 25.66C48.0593 23.72 50.0593 20.12 47.1893 17.91C42.1293 14.26 40.9993 5.46004 40.9993 5.37004C40.9052 4.57439 40.4988 3.84873 39.8696 3.3527C39.2404 2.85667 38.44 2.63089 37.6443 2.72504C36.8487 2.8192 36.123 3.22556 35.627 3.85475C35.1309 4.48393 34.9052 5.28439 34.9993 6.08004C35.0493 6.52004 36.2593 16.27 42.2993 21.71C42.0993 22.12 41.8693 22.55 41.7193 22.82C41.4412 23.3181 41.2005 23.8362 40.9993 24.37V24.37Z" fill="#2056BA"/>
<path d="M58.0807 12.4801C57.5893 12.4235 57.0953 12.3935 56.6007 12.3901C56.2931 12.3897 55.9858 12.3697 55.6807 12.3301C54.3707 11.4001 50.2907 6.4801 50.1107 3.3301C50.0643 2.53445 49.7037 1.78983 49.1083 1.26004C48.5128 0.73025 47.7313 0.458692 46.9357 0.505104C46.14 0.551517 45.3954 0.9121 44.8656 1.50753C44.3358 2.10296 44.0643 2.88446 44.1107 3.6801C44.4607 9.6201 50.6007 16.2601 52.6607 17.4701C53.8221 18.0871 55.1267 18.3839 56.4407 18.3301C56.7238 18.3154 57.0076 18.3154 57.2907 18.3301C59.7807 18.6601 72.1707 21.3301 71.4407 41.0701C70.9407 55.0801 64.0007 65.1901 52.0007 69.6501C48.5707 70.9201 36.6407 73.4601 27.1607 68.6501C25.2091 67.5667 23.5432 66.0345 22.3007 64.1801C20.8807 62.2501 18.2407 58.6601 13.3007 60.5701C8.1607 62.5701 8.0907 69.4001 8.0607 72.3201C8.05274 73.1158 8.36118 73.882 8.91816 74.4502C9.47515 75.0184 10.235 75.3421 11.0307 75.3501C11.8263 75.3581 12.5926 75.0496 13.1608 74.4926C13.729 73.9357 14.0527 73.1758 14.0607 72.3801C14.0607 67.6701 14.8507 66.3801 15.4707 66.1601C15.6351 66.0723 15.8152 66.0179 16.0007 66.0001V66.0001C16.5996 66.4993 17.1159 67.0899 17.5307 67.7501C19.3104 70.3516 21.682 72.4936 24.4507 74.0001C29.3708 76.3852 34.7838 77.5775 40.2507 77.4801C44.955 77.5091 49.6327 76.7728 54.1007 75.3001C68.3407 70.0001 76.8407 57.6501 77.4407 41.3901C77.8907 29.2801 73.0907 14.4501 58.0807 12.4801Z" fill="#2056BA"/>
</svg>
