<?xml version="1.0" encoding="utf-8"?>
<!-- Generator: Adobe Illustrator 17.0.0, SVG Export Plug-In . SVG Version: 6.00 Build 0)  -->
<!DOCTYPE svg PUBLIC "-//W3C//DTD SVG 1.1//EN" "http://www.w3.org/Graphics/SVG/1.1/DTD/svg11.dtd">
<svg version="1.1" id="Layer_1" xmlns="http://www.w3.org/2000/svg" xmlns:xlink="http://www.w3.org/1999/xlink" x="0px" y="0px"
	 width="106px" height="95px" viewBox="0 0 106 95" enable-background="new 0 0 106 95" xml:space="preserve">
<path fill="none" stroke="#FFFFFF" stroke-width="3" stroke-miterlimit="10" d="M100.981,57.642
	c-16.405,2.106-32.698,4.323-49.103,6.429C35.252,61.965,18.626,59.748,2,57.642c0-13.744,0-27.489,0-41.233h98.981V57.642z"/>
<path fill="none" stroke="#FFFFFF" stroke-width="3" stroke-miterlimit="10" d="M96.991,93.222h-91V67.174
	c15.185,1.663,30.37,3.325,45.666,4.988c15.185-1.663,30.26-3.325,45.445-4.988C96.991,75.82,96.991,84.576,96.991,93.222z"/>
<path fill="#FFFFFF" d="M92.699,35.801c7.346,0,13.301-5.955,13.301-13.301S100.045,9.2,92.699,9.2
	c-7.346,0-13.301,5.955-13.301,13.301S85.354,35.801,92.699,35.801z"/>
<path fill="#2536C9" stroke="#009BDF" stroke-miterlimit="10" d="M92.7,32.144c5.571,0,10.086-4.516,10.086-10.087
	S98.27,11.971,92.7,11.971c-5.571,0-10.087,4.516-10.087,10.086S87.129,32.144,92.7,32.144z"/>
<path fill="#FFFFFF" d="M93.476,16.071h-1.441v6.207h1.441V16.071z"/>
<path fill="#FFFFFF" d="M98.213,23.551V22.11h-6.207v1.441H98.213z"/>
<path fill="none" stroke="#FFFFFF" stroke-width="3" stroke-miterlimit="10" d="M38,8h-6v8h6V8z"/>
<path fill="none" stroke="#FFFFFF" stroke-width="3" stroke-miterlimit="10" d="M69,8h-6v8h6V8z"/>
<path fill="none" stroke="#FFFFFF" stroke-width="3" stroke-miterlimit="10" d="M69,8V4.471C69,3.059,67.997,2,66.66,2H34.34
	C33.003,2,32,3.059,32,4.471V8H69z"/>
</svg>
