<svg width="60" height="104" viewBox="0 0 60 104" fill="none" xmlns="http://www.w3.org/2000/svg">
<mask id="path-1-inside-1" fill="white">
<path d="M18.202 82.454L21.8301 70.262L18.4445 69.2515L14.8151 81.4448L18.202 82.454ZM38.7476 75.2975L35.3594 74.2909L31.7313 86.4829L35.1169 87.4895L38.7476 75.2975ZM30.2902 72.7785L26.902 71.7719L23.2726 83.9612L26.6607 84.9704L30.2902 72.7785ZM50.0861 37.2092L46.6979 36.2026L43.0684 48.3932L46.4566 49.3998L50.0861 37.2092ZM41.6273 34.6914L38.2391 33.6822L34.6097 45.8742L37.9979 46.8834L41.6273 34.6914ZM33.1698 32.1736L29.7791 31.1644L26.1496 43.3577L29.5404 44.3643L33.1698 32.1736ZM58.8561 34.6525C58.6084 34.1985 58.192 33.8599 57.6965 33.712L53.0397 32.3254L54.0242 20.1749C54.0657 19.6599 53.901 19.1489 53.565 18.7558C53.2304 18.3615 52.7517 18.1176 52.238 18.0748L38.2197 16.9385L38.4078 14.6101L49.5957 9.44225L35.6772 0.0326843L35.4113 3.35729C35.4113 3.35859 35.41 3.35859 35.41 3.35989L34.5773 13.636L34.3464 16.4884L34.336 16.6246L29.0099 16.1926C27.9708 16.1057 26.9967 16.9035 26.9085 17.9775L26.387 24.392L25.3247 24.0755C24.2908 23.7693 23.2077 24.3582 22.9016 25.3869L17.2291 44.4304V44.4317L11.5605 63.4753L5.89196 82.5188L0.407587 100.942C0.231174 101.531 0.345325 102.169 0.71242 102.664C1.07951 103.158 1.66064 103.448 2.27549 103.448H37.5192C38.3818 103.448 39.1407 102.882 39.3871 102.055L42.0022 93.2696L53.3393 55.1826L59.0092 36.139C59.1571 35.6409 59.1026 35.1078 58.8561 34.6525ZM39.0278 7.001L41.6922 8.80275L38.7723 10.1505L39.0278 7.001ZM30.6365 20.2359L49.9836 21.8028L49.2221 31.1891L45.7678 30.1604L46.0311 24.951L42.5094 24.667L42.3057 29.1292L37.1236 27.5869L37.2377 24.2389L33.7121 23.9535L33.6589 26.5556L30.2071 25.5283L30.6365 20.2359ZM36.0651 99.5492H31.5276L33.079 94.3437L29.6909 93.3345L27.8398 99.5492H22.3178L24.6177 91.8246L21.2321 90.8154L18.6339 99.5479H13.1119L16.1615 89.3055L12.7734 88.2963L9.42282 99.5479H4.88796L9.06999 85.4971L9.99616 85.7734L37.7099 94.0233L36.0651 99.5492ZM38.8229 90.2875L37.8967 90.0125L10.183 81.7626L14.7373 66.4548L15.6634 66.7298L43.3772 74.9797L38.8229 90.2875ZM44.4914 71.2439L43.5653 70.9689L15.8515 62.719L20.4058 47.4113L21.332 47.6863L49.0457 55.9362L44.4914 71.2439ZM50.16 52.2004L21.5214 43.6755L26.0796 28.3678L54.7169 36.8927L50.16 52.2004ZM44.4175 56.2553L41.0293 55.2461L37.4012 67.4381L40.7867 68.4473L44.4175 56.2553ZM23.8705 63.4104L27.5 51.2197L24.1118 50.2106L20.4824 62.4025L23.8705 63.4104ZM35.9587 53.7375L32.5706 52.7283L28.9411 64.9203L32.3293 65.9295L35.9587 53.7375Z"/>
</mask>
<path d="M18.202 82.454L21.8301 70.262L18.4445 69.2515L14.8151 81.4448L18.202 82.454ZM38.7476 75.2975L35.3594 74.2909L31.7313 86.4829L35.1169 87.4895L38.7476 75.2975ZM30.2902 72.7785L26.902 71.7719L23.2726 83.9612L26.6607 84.9704L30.2902 72.7785ZM50.0861 37.2092L46.6979 36.2026L43.0684 48.3932L46.4566 49.3998L50.0861 37.2092ZM41.6273 34.6914L38.2391 33.6822L34.6097 45.8742L37.9979 46.8834L41.6273 34.6914ZM33.1698 32.1736L29.7791 31.1644L26.1496 43.3577L29.5404 44.3643L33.1698 32.1736ZM58.8561 34.6525C58.6084 34.1985 58.192 33.8599 57.6965 33.712L53.0397 32.3254L54.0242 20.1749C54.0657 19.6599 53.901 19.1489 53.565 18.7558C53.2304 18.3615 52.7517 18.1176 52.238 18.0748L38.2197 16.9385L38.4078 14.6101L49.5957 9.44225L35.6772 0.0326843L35.4113 3.35729C35.4113 3.35859 35.41 3.35859 35.41 3.35989L34.5773 13.636L34.3464 16.4884L34.336 16.6246L29.0099 16.1926C27.9708 16.1057 26.9967 16.9035 26.9085 17.9775L26.387 24.392L25.3247 24.0755C24.2908 23.7693 23.2077 24.3582 22.9016 25.3869L17.2291 44.4304V44.4317L11.5605 63.4753L5.89196 82.5188L0.407587 100.942C0.231174 101.531 0.345325 102.169 0.71242 102.664C1.07951 103.158 1.66064 103.448 2.27549 103.448H37.5192C38.3818 103.448 39.1407 102.882 39.3871 102.055L42.0022 93.2696L53.3393 55.1826L59.0092 36.139C59.1571 35.6409 59.1026 35.1078 58.8561 34.6525ZM39.0278 7.001L41.6922 8.80275L38.7723 10.1505L39.0278 7.001ZM30.6365 20.2359L49.9836 21.8028L49.2221 31.1891L45.7678 30.1604L46.0311 24.951L42.5094 24.667L42.3057 29.1292L37.1236 27.5869L37.2377 24.2389L33.7121 23.9535L33.6589 26.5556L30.2071 25.5283L30.6365 20.2359ZM36.0651 99.5492H31.5276L33.079 94.3437L29.6909 93.3345L27.8398 99.5492H22.3178L24.6177 91.8246L21.2321 90.8154L18.6339 99.5479H13.1119L16.1615 89.3055L12.7734 88.2963L9.42282 99.5479H4.88796L9.06999 85.4971L9.99616 85.7734L37.7099 94.0233L36.0651 99.5492ZM38.8229 90.2875L37.8967 90.0125L10.183 81.7626L14.7373 66.4548L15.6634 66.7298L43.3772 74.9797L38.8229 90.2875ZM44.4914 71.2439L43.5653 70.9689L15.8515 62.719L20.4058 47.4113L21.332 47.6863L49.0457 55.9362L44.4914 71.2439ZM50.16 52.2004L21.5214 43.6755L26.0796 28.3678L54.7169 36.8927L50.16 52.2004ZM44.4175 56.2553L41.0293 55.2461L37.4012 67.4381L40.7867 68.4473L44.4175 56.2553ZM23.8705 63.4104L27.5 51.2197L24.1118 50.2106L20.4824 62.4025L23.8705 63.4104ZM35.9587 53.7375L32.5706 52.7283L28.9411 64.9203L32.3293 65.9295L35.9587 53.7375Z" stroke="white" stroke-width="1.4" mask="url(#path-1-inside-1)"/>
</svg>
