<svg width="18" height="24" viewBox="0 0 18 24" fill="none" xmlns="http://www.w3.org/2000/svg">
<path d="M2 0C0.909297 0 0 0.909297 0 2V22C0 23.0907 0.909297 24 2 24H16C17.0907 24 18 23.0907 18 22V2C18 0.909297 17.0907 0 16 0H2ZM2.5 2H15.5C15.777 2 16 2.223 16 2.5V5.5C16 5.777 15.777 6 15.5 6H2.5C2.223 6 2 5.777 2 5.5V2.5C2 2.223 2.223 2 2.5 2ZM11 3C10.4477 3 10 3.44772 10 4C10 4.55228 10.4477 5 11 5C11.5523 5 12 4.55228 12 4C12 3.44772 11.5523 3 11 3ZM14 3C13.4477 3 13 3.44772 13 4C13 4.55228 13.4477 5 14 5C14.5523 5 15 4.55228 15 4C15 3.44772 14.5523 3 14 3ZM8.90625 8C8.9375 7.99979 8.96875 7.99979 9 8C12.866 8 16 11.134 16 15C16 18.866 12.866 22 9 22C5.13401 22 2 18.866 2 15C1.99966 11.1703 5.07692 8.05129 8.90625 8ZM11.9355 14.4297C9.31232 14.2843 7.43547 16.4085 4.4549 15.2056C4.19922 15.1025 3.99738 15.2245 4.02461 15.4992C4.27509 18.0262 6.40705 20 9 20C11.6269 20 13.7838 17.9745 13.9843 15.3998C14.035 14.7485 12.762 14.4755 11.9355 14.4297Z" fill="#2056BA"/>
</svg>
