<svg width="94" height="97" viewBox="0 0 94 97" fill="none" xmlns="http://www.w3.org/2000/svg">
<path d="M16 39.231C16.0455 31.5274 18.3713 24.0099 22.6842 17.6267C26.9971 11.2436 33.1039 6.28064 40.2341 3.36406C47.3643 0.447475 55.1985 -0.292116 62.7486 1.23858C70.2986 2.76928 77.2262 6.50169 82.6575 11.965C88.0888 17.4283 91.7804 24.3777 93.2666 31.9366C94.7529 39.4955 93.9673 47.3253 91.0088 54.4382C88.0504 61.5512 83.0516 67.6286 76.6432 71.9039C70.2348 76.1792 62.7037 78.4608 55 78.461C44.6306 78.416 34.7021 74.261 27.3913 66.9071C20.0805 59.5532 15.9841 49.6005 16 39.231V39.231ZM31.44 39.231C31.4835 43.8859 32.9038 48.4238 35.5219 52.2729C38.1401 56.122 41.8389 59.11 46.1524 60.8604C50.4659 62.6109 55.201 63.0454 59.761 62.1092C64.321 61.1731 68.5019 58.9081 71.7769 55.5998C75.0518 52.2915 77.2743 48.0879 78.1642 43.5186C79.0541 38.9493 78.5716 34.2189 76.7775 29.9233C74.9835 25.6278 71.9581 21.9594 68.0827 19.3804C64.2072 16.8014 59.6552 15.4272 55 15.431C48.717 15.4627 42.7034 17.9871 38.2802 22.4496C33.8571 26.9121 31.3861 32.9478 31.41 39.231H31.44Z" fill="white"/>
<path d="M33.2894 52L0 85.1503L10.8948 96.0908L44.1842 62.9406L33.2894 52Z" fill="white"/>
</svg>
