<svg width="25" height="26" viewBox="0 0 25 26" fill="none" xmlns="http://www.w3.org/2000/svg">
<rect x="0.572266" y="1.4231" width="23.8786" height="23.9231" stroke="#05658E"/>
<path d="M19.2956 24.066H5.72544C5.63975 24.066 5.55757 24.0309 5.49698 23.9683C5.43638 23.9057 5.40234 23.8208 5.40234 23.7322V20.3943C5.40234 20.3058 5.43638 20.2209 5.49698 20.1583C5.55757 20.0957 5.63975 20.0605 5.72544 20.0605H16.0646V20.7281H6.04854V23.3985H18.9725V20.7281H18.0032V20.0605H19.2956C19.3812 20.0605 19.4634 20.0957 19.524 20.1583C19.5846 20.2209 19.6187 20.3058 19.6187 20.3943V23.7322C19.6187 23.8208 19.5846 23.9057 19.524 23.9683C19.4634 24.0309 19.3812 24.066 19.2956 24.066Z" fill="#05658E"/>
<path d="M17.3591 20.0605H16.7129V20.7281H17.3591V20.0605Z" fill="#05658E"/>
<path d="M19.2956 19.3929H7.66403V18.7253H18.9725V16.055H6.04854V18.7253H7.01783V19.3929H5.72544C5.63975 19.3929 5.55757 19.3577 5.49698 19.2951C5.43638 19.2326 5.40234 19.1477 5.40234 19.0591V15.7212C5.40234 15.6327 5.43638 15.5478 5.49698 15.4852C5.55757 15.4226 5.63975 15.3875 5.72544 15.3875H19.2956C19.3812 15.3875 19.4634 15.4226 19.524 15.4852C19.5846 15.5478 19.6187 15.6327 19.6187 15.7212V19.0591C19.6187 19.1477 19.5846 19.2326 19.524 19.2951C19.4634 19.3577 19.3812 19.3929 19.2956 19.3929Z" fill="#05658E"/>
<path d="M18.9743 19.0591H18.3281V20.3943H18.9743V19.0591Z" fill="#05658E"/>
<path d="M6.697 20.3943H6.05078V19.0591C6.05078 18.9706 6.08482 18.8857 6.14542 18.8231C6.20601 18.7605 6.2882 18.7253 6.37389 18.7253H7.02011V19.3929H6.697V20.3943Z" fill="#05658E"/>
<path d="M7.6618 16.3888H7.01562V17.0564H7.6618V16.3888Z" fill="#05658E"/>
<path d="M7.6618 17.724H7.01562V18.3916H7.6618V17.724Z" fill="#05658E"/>
<path d="M7.6618 21.0619H7.01562V21.7295H7.6618V21.0619Z" fill="#05658E"/>
<path d="M7.6618 22.397H7.01562V23.0646H7.6618V22.397Z" fill="#05658E"/>
<path d="M18.0016 16.3888H17.3555V17.0564H18.0016V16.3888Z" fill="#05658E"/>
<path d="M18.0016 17.724H17.3555V18.3916H18.0016V17.724Z" fill="#05658E"/>
<path d="M18.0016 21.0619H17.3555V21.7295H18.0016V21.0619Z" fill="#05658E"/>
<path d="M18.0016 22.397H17.3555V23.0646H18.0016V22.397Z" fill="#05658E"/>
<path d="M13.1783 15.8354L11.948 12.3399L10.7105 12.0842L9.86334 13.2511C9.82779 13.3001 9.77991 13.338 9.72492 13.3607C9.66994 13.3834 9.60996 13.3901 9.55155 13.38L7.74963 13.0699L6.69698 13.8853V15.7212H6.05078V13.7184C6.05078 13.6666 6.06246 13.6155 6.08489 13.5692C6.10732 13.5228 6.13989 13.4825 6.18002 13.4514L7.47241 12.45C7.5074 12.4229 7.54735 12.4035 7.58984 12.3928C7.63232 12.3821 7.67646 12.3805 7.71958 12.3879L9.46432 12.6884L10.3157 11.5154C10.3524 11.4648 10.4022 11.4261 10.4594 11.4036C10.5166 11.3811 10.5788 11.3759 10.6388 11.3886L12.2543 11.7224C12.3087 11.7336 12.3593 11.759 12.4014 11.7963C12.4435 11.8336 12.4756 11.8815 12.4947 11.9353L13.787 15.607L13.1783 15.8354Z" fill="#05658E"/>
<path d="M9.86266 15.9214L9.3457 15.5209L10.1696 14.386L9.3457 13.2511L9.86266 12.8505L10.832 14.1857C10.8739 14.2435 10.8966 14.3137 10.8966 14.386C10.8966 14.4582 10.8739 14.5285 10.832 14.5862L9.86266 15.9214Z" fill="#05658E"/>
<path d="M12.787 13.7216L10.5254 14.0557L10.6169 14.7169L12.8785 14.3828L12.787 13.7216Z" fill="#05658E"/>
<path d="M18.3483 15.845L17.7021 14.176C17.6869 14.1366 17.6791 14.0946 17.6792 14.0522V11.9673L15.7661 11.4026L12.3203 13.0208L12.0527 12.4133L15.6068 10.7443C15.6766 10.7113 15.7556 10.7052 15.8294 10.7273L18.0911 11.3949C18.1586 11.4148 18.2179 11.4569 18.2602 11.5148C18.3024 11.5726 18.3253 11.6432 18.3254 11.7156V13.9881L18.9486 15.5973L18.3483 15.845Z" fill="#05658E"/>
<path d="M16.7511 15.8881L15.4587 13.5516C15.4304 13.5008 15.4157 13.4432 15.416 13.3847V11.0482H16.0622V13.2959L17.312 15.5556L16.7511 15.8881Z" fill="#05658E"/>
<path d="M13.3487 15.3207L12.9609 14.7866L14.2533 13.7852C14.2689 13.7727 14.2854 13.7615 14.3028 13.7519L15.5952 13.0843L15.884 13.6818L14.6178 14.3357L13.3487 15.3207Z" fill="#05658E"/>
<path d="M11.8607 7.46658H11.2145V6.16813C11.2146 6.08409 11.2452 6.00316 11.3005 5.94148C11.4457 5.78966 11.5303 5.58699 11.5376 5.3737V5.0399H8.95284V5.3737C8.96021 5.58688 9.04486 5.78941 9.19 5.94115C9.24531 6.00291 9.27601 6.08398 9.27594 6.16813V7.46658H8.62974V6.29163C8.42353 6.03287 8.30948 5.70886 8.30664 5.3737V4.70611C8.30664 4.61758 8.34068 4.53268 8.40127 4.47008C8.46187 4.40748 8.54405 4.37231 8.62974 4.37231H11.8607C11.9464 4.37231 12.0286 4.40748 12.0892 4.47008C12.1498 4.53268 12.1838 4.61758 12.1838 4.70611V5.3737C12.181 5.70886 12.067 6.03287 11.8607 6.29163V7.46658Z" fill="#05658E"/>
<path d="M8.01723 7.30969C7.71485 7.09092 7.4666 6.80164 7.29259 6.46529C7.11858 6.12895 7.02369 5.75499 7.01562 5.3737C7.01563 3.90135 8.46505 2.70337 10.2466 2.70337C11.4922 2.70337 12.6052 3.27616 13.149 4.19842C13.3631 4.55056 13.477 4.95785 13.4776 5.3737C13.4781 5.64443 13.4288 5.91279 13.3322 6.16445C13.1567 6.62119 12.8607 7.01795 12.4779 7.30969L12.0863 6.77863C12.3738 6.56156 12.5966 6.26566 12.7296 5.92446C12.7973 5.74927 12.8318 5.56232 12.8314 5.3737C12.8303 5.08105 12.7495 4.79463 12.5981 4.54723C12.1758 3.83225 11.2531 3.37095 10.2466 3.37095C8.82142 3.37095 7.66182 4.26919 7.66182 5.3737C7.6711 5.65175 7.74347 5.92366 7.87311 6.16752C8.00275 6.41138 8.18603 6.62036 8.40818 6.77763L8.01723 7.30969Z" fill="#05658E"/>
<path d="M9.59904 11.3819C9.34197 11.3819 9.09542 11.2764 8.91364 11.0886C8.73186 10.9008 8.62974 10.6461 8.62974 10.3806V6.29161C8.42353 6.03286 8.30948 5.70885 8.30664 5.37369V4.70611C8.30664 4.61758 8.34068 4.53268 8.40127 4.47008C8.46187 4.40748 8.54405 4.37231 8.62974 4.37231H11.8607C11.9464 4.37231 12.0286 4.40748 12.0892 4.47008C12.1498 4.53268 12.1838 4.61758 12.1838 4.70611V5.37369C12.181 5.70885 12.067 6.03286 11.8607 6.29161V9.37918C11.8608 9.5394 11.8236 9.69728 11.7523 9.83958C11.681 9.98187 11.5778 10.1044 11.4511 10.1969C11.3245 10.2894 11.1783 10.3492 11.0247 10.3712C10.871 10.3933 10.7146 10.3769 10.5683 10.3235V10.3806C10.5683 10.6461 10.4662 10.9008 10.2844 11.0886C10.1027 11.2764 9.85611 11.3819 9.59904 11.3819ZM8.95284 5.0399V5.37369C8.96021 5.58687 9.04486 5.7894 9.19 5.94113C9.24531 6.0029 9.27601 6.08396 9.27594 6.16811V10.3806C9.27594 10.4691 9.30998 10.554 9.37057 10.6166C9.43117 10.6792 9.51335 10.7143 9.59904 10.7143C9.68473 10.7143 9.76691 10.6792 9.82751 10.6166C9.8881 10.554 9.92214 10.4691 9.92214 10.3806V9.37918C9.92214 9.29065 9.95618 9.20575 10.0168 9.14315C10.0774 9.08056 10.1595 9.04539 10.2452 9.04539C10.3309 9.04539 10.4131 9.08056 10.4737 9.14315C10.5343 9.20575 10.5683 9.29065 10.5683 9.37918C10.5683 9.46771 10.6024 9.55261 10.663 9.61521C10.7236 9.67781 10.8057 9.71297 10.8914 9.71297C10.9771 9.71297 11.0593 9.67781 11.1199 9.61521C11.1805 9.55261 11.2145 9.46771 11.2145 9.37918V6.16811C11.2146 6.08408 11.2452 6.00315 11.3005 5.94147C11.4457 5.78965 11.5303 5.58698 11.5376 5.37369V5.0399H8.95284Z" fill="#05658E"/>
<path d="M18.4882 6.37512H13.8033V5.70754H18.4882C18.6167 5.70754 18.74 5.65479 18.8309 5.56089C18.9218 5.46699 18.9729 5.33964 18.9729 5.20685C18.9729 5.07406 18.9218 4.9467 18.8309 4.85281C18.74 4.75891 18.6167 4.70616 18.4882 4.70616H12.834V4.03857H18.4882C18.7881 4.03857 19.0758 4.16166 19.2878 4.38075C19.4999 4.59985 19.619 4.897 19.619 5.20685C19.619 5.51669 19.4999 5.81385 19.2878 6.03294C19.0758 6.25204 18.7881 6.37512 18.4882 6.37512V6.37512Z" fill="#05658E"/>
<path d="M13.8022 12.0496H13.156C13.156 11.862 13.0859 11.7825 12.9276 11.618C12.7971 11.5091 12.6919 11.3714 12.6196 11.2151C12.5473 11.0587 12.5098 10.8877 12.5098 10.7144C12.5098 10.5411 12.5473 10.3701 12.6196 10.2137C12.6919 10.0574 12.7971 9.91971 12.9276 9.81082C13.0859 9.64727 13.156 9.56682 13.156 9.37923C13.156 9.19164 13.0859 9.1122 12.9276 8.94764C12.7985 8.83747 12.6943 8.69955 12.6221 8.54349C12.55 8.38744 12.5117 8.217 12.5098 8.04407H13.156C13.156 8.23166 13.2261 8.3111 13.3844 8.47566C13.5149 8.58454 13.6201 8.7222 13.6924 8.87855C13.7647 9.03489 13.8022 9.20596 13.8022 9.37923C13.8022 9.5525 13.7647 9.72357 13.6924 9.87992C13.6201 10.0363 13.5149 10.1739 13.3844 10.2828C13.2261 10.4474 13.156 10.5268 13.156 10.7144C13.156 10.902 13.2261 10.9814 13.3844 11.146C13.5135 11.2562 13.6177 11.3941 13.6898 11.5501C13.762 11.7062 13.8003 11.8766 13.8022 12.0496Z" fill="#05658E"/>
<path d="M15.4174 11.382H14.7712C14.7712 11.1944 14.7011 11.1149 14.5428 10.9504C14.4123 10.8415 14.3071 10.7038 14.2348 10.5475C14.1625 10.3911 14.125 10.2201 14.125 10.0468C14.125 9.87353 14.1625 9.70245 14.2348 9.54611C14.3071 9.38976 14.4123 9.25211 14.5428 9.14322C14.7011 8.97966 14.7712 8.89922 14.7712 8.71163C14.7712 8.52404 14.7011 8.4446 14.5428 8.28004C14.4137 8.16987 14.3095 8.03194 14.2374 7.87589C14.1652 7.71983 14.1269 7.5494 14.125 7.37646H14.7712C14.7712 7.56406 14.8413 7.6435 14.9996 7.80806C15.1301 7.91694 15.2353 8.0546 15.3076 8.21094C15.3799 8.36729 15.4174 8.53836 15.4174 8.71163C15.4174 8.8849 15.3799 9.05597 15.3076 9.21231C15.2353 9.36866 15.1301 9.50632 14.9996 9.6152C14.8413 9.77976 14.7712 9.8592 14.7712 10.0468C14.7712 10.2344 14.8413 10.3138 14.9996 10.4784C15.1287 10.5886 15.2329 10.7265 15.305 10.8825C15.3772 11.0386 15.4155 11.209 15.4174 11.382V11.382Z" fill="#05658E"/>
<path d="M17.3569 11.382H16.7107C16.7107 11.1944 16.6406 11.1149 16.4823 10.9504C16.3518 10.8415 16.2466 10.7038 16.1743 10.5475C16.102 10.3911 16.0645 10.2201 16.0645 10.0468C16.0645 9.87353 16.102 9.70245 16.1743 9.54611C16.2466 9.38976 16.3518 9.25211 16.4823 9.14322C16.6406 8.97966 16.7107 8.89922 16.7107 8.71163C16.7107 8.52404 16.6406 8.4446 16.4823 8.28004C16.3532 8.16987 16.249 8.03194 16.1768 7.87589C16.1047 7.71983 16.0663 7.5494 16.0645 7.37646H16.7107C16.7107 7.56406 16.7808 7.6435 16.9391 7.80806C17.0696 7.91694 17.1748 8.0546 17.2471 8.21094C17.3194 8.36729 17.3569 8.53836 17.3569 8.71163C17.3569 8.8849 17.3194 9.05597 17.2471 9.21231C17.1748 9.36866 17.0696 9.50632 16.9391 9.6152C16.7808 9.77976 16.7107 9.8592 16.7107 10.0468C16.7107 10.2344 16.7808 10.3138 16.9391 10.4784C17.0682 10.5886 17.1724 10.7265 17.2446 10.8825C17.3167 11.0386 17.355 11.209 17.3569 11.382V11.382Z" fill="#05658E"/>
</svg>
