<svg width="26" height="26" viewBox="0 0 26 26" fill="none" xmlns="http://www.w3.org/2000/svg">
<rect x="0.654297" y="1.4231" width="23.8785" height="23.9231" stroke="#05658E"/>
<path d="M2.14211 15.1627H3.08811V15.4047C3.08811 15.6614 3.13578 15.8777 3.23111 16.0537C3.33378 16.2297 3.46944 16.3727 3.63811 16.4827C3.80678 16.5927 4.00111 16.6734 4.22111 16.7247C4.44111 16.7761 4.66844 16.8017 4.90311 16.8017C5.19644 16.8017 5.44944 16.7614 5.66211 16.6807C5.87478 16.5927 6.05078 16.4827 6.19011 16.3507C6.32944 16.2114 6.43211 16.0574 6.49811 15.8887C6.56411 15.7201 6.59711 15.5514 6.59711 15.3827C6.59711 15.0747 6.49078 14.7924 6.27811 14.5357C6.07278 14.2791 5.68411 14.0664 5.11211 13.8977L4.38611 13.6887C3.63811 13.4761 3.10278 13.1937 2.78011 12.8417C2.46478 12.4897 2.30711 12.0497 2.30711 11.5217C2.30711 11.2357 2.36578 10.9681 2.48311 10.7187C2.60778 10.4621 2.78011 10.2421 3.00011 10.0587C3.22744 9.86807 3.49878 9.71773 3.81411 9.60773C4.12944 9.49773 4.48511 9.44273 4.88111 9.44273C5.18178 9.44273 5.46411 9.4794 5.72811 9.55273C5.99211 9.61873 6.22678 9.6994 6.43211 9.79473C6.64478 9.89007 6.82444 9.99273 6.97111 10.1027C7.11778 10.2127 7.22778 10.3044 7.30111 10.3777V11.5877H6.35511V11.3457C6.35511 10.8984 6.21578 10.5684 5.93711 10.3557C5.65844 10.1357 5.29911 10.0257 4.85911 10.0257C4.57311 10.0257 4.33478 10.0734 4.14411 10.1687C3.96078 10.2567 3.81044 10.3704 3.69311 10.5097C3.57578 10.6491 3.49144 10.7957 3.44011 10.9497C3.39611 11.1037 3.37411 11.2431 3.37411 11.3677C3.37411 11.6977 3.46578 11.9911 3.64911 12.2477C3.83244 12.4971 4.15511 12.6914 4.61711 12.8307L5.45311 13.0837C5.90044 13.2157 6.26711 13.3624 6.55311 13.5237C6.84644 13.6777 7.07378 13.8464 7.23511 14.0297C7.39644 14.2131 7.50644 14.4111 7.56511 14.6237C7.63111 14.8364 7.66411 15.0674 7.66411 15.3167C7.66411 15.5807 7.59811 15.8374 7.46611 16.0867C7.34144 16.3287 7.15811 16.5487 6.91611 16.7467C6.68144 16.9374 6.39178 17.0914 6.04711 17.2087C5.70244 17.3261 5.31378 17.3847 4.88111 17.3847C4.58044 17.3847 4.29078 17.3554 4.01211 17.2967C3.74078 17.2454 3.48778 17.1721 3.25311 17.0767C3.01844 16.9814 2.80578 16.8751 2.61511 16.7577C2.43178 16.6331 2.27411 16.5084 2.14211 16.3837V15.1627ZM9.17446 16.7137C9.35046 16.7137 9.46779 16.6624 9.52646 16.5597C9.58513 16.4571 9.61446 16.2994 9.61446 16.0867V10.1137H8.65746V9.56373H12.1115C12.4195 9.56373 12.7385 9.5894 13.0685 9.64073C13.3985 9.69207 13.6991 9.7984 13.9705 9.95973C14.2418 10.1137 14.4618 10.3411 14.6305 10.6417C14.8065 10.9351 14.8945 11.3237 14.8945 11.8077C14.8945 12.2111 14.8175 12.5631 14.6635 12.8637C14.5168 13.1644 14.3115 13.4174 14.0475 13.6227C13.7908 13.8207 13.4865 13.9711 13.1345 14.0737C12.7898 14.1691 12.4195 14.2167 12.0235 14.2167H10.6815V16.7137H11.8035V17.2637H8.65746V16.7137H9.17446ZM12.0015 13.6227C12.1481 13.6227 12.3205 13.5934 12.5185 13.5347C12.7238 13.4761 12.9181 13.3771 13.1015 13.2377C13.2921 13.0984 13.4535 12.9151 13.5855 12.6877C13.7175 12.4531 13.7835 12.1634 13.7835 11.8187C13.7835 11.4887 13.7248 11.2174 13.6075 11.0047C13.4901 10.7847 13.3435 10.6124 13.1675 10.4877C12.9915 10.3557 12.8045 10.2677 12.6065 10.2237C12.4158 10.1724 12.2435 10.1467 12.0895 10.1467H10.6705V13.6227H12.0015ZM14.9468 16.7137C15.1228 16.7137 15.2878 16.6514 15.4418 16.5267C15.6031 16.4021 15.7388 16.2077 15.8488 15.9437L18.4448 9.56373H19.5228L22.4268 16.7137H23.3068V17.2637H20.2378V16.7137H20.6998C20.8245 16.7137 20.9125 16.6734 20.9638 16.5927C21.0151 16.5047 21.0408 16.4094 21.0408 16.3067C21.0408 16.2481 21.0335 16.1931 21.0188 16.1417C21.0041 16.0831 20.9895 16.0281 20.9748 15.9767L20.6228 15.0637H16.9708L16.6188 15.9657C16.5528 16.1344 16.5198 16.2774 16.5198 16.3947C16.5198 16.4974 16.5418 16.5781 16.5858 16.6367C16.6298 16.6881 16.7105 16.7137 16.8278 16.7137H17.3008V17.2637H14.6168V16.7137H14.9468ZM19.1488 11.3897C19.1048 11.2871 19.0535 11.1477 18.9948 10.9717C18.9361 10.7884 18.8885 10.6307 18.8518 10.4987H18.7968C18.7381 10.6381 18.6758 10.7921 18.6098 10.9607C18.5438 11.1294 18.4888 11.2651 18.4448 11.3677L17.1688 14.4697H20.4358L19.1488 11.3897Z" fill="#05658E"/>
</svg>
