<svg width="136" height="119" viewBox="0 0 136 119" fill="none" xmlns="http://www.w3.org/2000/svg">
<path d="M68 10.0001H32.3707L6 43.7214L68 112.5L130 43.7214L103.547 10.0001H68Z" stroke="white" stroke-width="8" stroke-miterlimit="10"/>
<path d="M68 13.5001H35.244L11 43.4882L68 107.5L125 43.4882L100.68 13.5001H68Z" stroke="#EEF7FE" stroke-width="8" stroke-miterlimit="10"/>
<path d="M38.629 56.8025L38.788 55.9545L43.293 53.7815L48.381 24.8435L44.618 22.6705L44.777 21.8225H70.588L68.945 30.9915H68.15L65.818 24.5785H54.9L52.621 37.4575H60.2L63.857 32.8995H64.705L62.638 44.5065H61.79L59.776 40.0015H52.144L49.653 54.0465H62.32L67.249 46.3085H68.097L66.242 56.8025H38.629Z" fill="white"/>
<path d="M66.629 69.5001L66.788 68.6521L71.293 66.4791L76.381 37.5411L72.618 35.3681L72.777 34.5201H87.988L87.829 35.3681L82.847 37.5411L77.706 66.7441H88.465L94.083 57.2041H94.931L92.705 69.5001H66.629Z" fill="white"/>
<path d="M46.4414 80.9792H90.1606" stroke="#EEF7FE" stroke-width="8" stroke-miterlimit="10"/>
<path d="M98.2341 41.0278C100.295 41.0278 101.966 39.352 101.966 37.2847C101.966 35.2175 100.295 33.5417 98.2341 33.5417C96.1729 33.5417 94.502 35.2175 94.502 37.2847C94.502 39.352 96.1729 41.0278 98.2341 41.0278Z" stroke="white" stroke-width="3" stroke-miterlimit="10"/>
</svg>
