<svg width="26" height="26" viewBox="0 0 26 26" fill="none" xmlns="http://www.w3.org/2000/svg">
<path d="M22.2305 12.0376H21.8585V10.2626C21.8585 10.0176 21.6602 9.81889 21.4155 9.81889H20.0867V8.48768C20.0867 8.24263 19.8884 8.04395 19.6438 8.04395H17.872C17.6274 8.04395 17.4291 8.24263 17.4291 8.48768V12.0376H8.43288V8.48768C8.43288 8.24263 8.23456 8.04395 7.98994 8.04395H6.21817C5.97356 8.04395 5.77523 8.24263 5.77523 8.48768V9.81889H4.44641C4.20179 9.81889 4.00346 10.0176 4.00346 10.2626V12.0376H3.62692C1.86827 12.0376 1.87004 14.7 3.62692 14.7H4.00346V16.4749C4.00346 16.72 4.20179 16.9187 4.44641 16.9187H5.77523V18.2499C5.77523 18.4949 5.97356 18.6936 6.21817 18.6936H7.98994C8.23456 18.6936 8.43288 18.4949 8.43288 18.2499V14.7H17.4291V18.2499C17.4291 18.4949 17.6274 18.6936 17.872 18.6936H19.6438C19.8884 18.6936 20.0867 18.4949 20.0867 18.2499V16.9187H21.4155C21.6602 16.9187 21.8585 16.72 21.8585 16.4749V14.7H22.2305C23.9891 14.7 23.9874 12.0376 22.2305 12.0376ZM3.18398 13.3688C3.18398 12.7855 3.91619 12.9462 4.00346 12.925V13.8125C3.93261 13.7953 3.18398 13.9495 3.18398 13.3688ZM4.88935 16.0312C4.88935 15.9453 4.88935 10.508 4.88935 10.7064H5.77523V16.0312H4.88935ZM7.547 17.8061H6.66112C6.66112 15.0762 6.66112 13.0963 6.66112 10.2626V8.93142H7.547C7.547 12.1619 7.547 14.5645 7.547 17.8061ZM8.43288 13.8125V12.925H17.4291V13.8125H8.43288ZM19.2008 17.8061H18.3149C18.3149 14.5863 18.3149 12.1211 18.3149 8.93142H19.2008C19.2008 11.8884 19.2008 14.8462 19.2008 17.8061ZM20.9726 16.0312H20.0867V10.7064H20.9726C20.9726 10.7923 20.9726 16.2296 20.9726 16.0312ZM21.8585 13.8125V12.925C21.9349 12.9437 22.6734 12.7881 22.6734 13.3688C22.6734 13.9521 21.9485 13.7905 21.8585 13.8125Z" fill="#05658E"/>
<rect x="1.03125" y="1.4231" width="23.8786" height="23.9231" stroke="#05658E"/>
</svg>
