<svg width="21" height="21" viewBox="0 0 21 21" fill="none" xmlns="http://www.w3.org/2000/svg">
<path d="M10.2706 20.6918C15.7906 20.6918 20.2756 16.1678 20.2756 10.5998C20.2756 5.03181 15.7906 0.507812 10.2706 0.507812C4.75063 0.507812 0.265625 5.03181 0.265625 10.5998C0.265625 16.1678 4.75063 20.6918 10.2706 20.6918ZM10.2706 1.89981C15.0316 1.89981 18.8956 5.79741 18.8956 10.5998C18.8956 15.4022 15.0316 19.2998 10.2706 19.2998C5.50962 19.2998 1.64563 15.4022 1.64563 10.5998C1.64563 5.79741 5.50962 1.89981 10.2706 1.89981Z" fill="white"/>
<path d="M9.81109 11.9918H15.3311V10.5998H10.5011V3.17578H9.12109V11.2958C9.12109 11.6902 9.42009 11.9918 9.81109 11.9918Z" fill="white"/>
</svg>
