<svg width="69" height="75" viewBox="0 0 69 75" fill="none" xmlns="http://www.w3.org/2000/svg">
<path d="M0.430115 3.34337H0.43011V71.7683C0.430208 72.9186 1.49569 73.9842 2.64559 73.9844H52.2439C53.3937 73.9842 54.4592 72.9186 54.4593 71.7683V64.2844V63.441L55.0564 64.0366L64.3561 73.3113L64.3647 73.3199L64.3727 73.329C64.7589 73.7715 65.3487 74.0186 65.9643 74.0406C66.5799 74.0626 67.1858 73.8582 67.6026 73.4443L67.8492 73.6927L67.6026 73.4443C68.0195 73.0305 68.2283 72.4259 68.2109 71.8101C68.1935 71.1942 67.9507 70.6024 67.5112 70.2127L67.5033 70.2057L67.4958 70.1983L57.0738 59.7742L56.8554 59.5557L57.045 59.3119C59.7031 55.893 61.3004 51.6116 61.3004 46.9643C61.3004 41.0144 58.697 35.6627 54.5755 31.9628L54.4593 31.8585V31.7023V18.739V18.7381C54.4607 18.1589 54.2222 17.5793 53.8135 17.1689L0.430115 3.34337ZM0.430115 3.34337L0.430105 3.3415M0.430115 3.34337L0.430105 3.3415M0.430105 3.3415C0.424351 2.26571 1.33642 1.2442 2.40507 1.12658C2.47957 1.1233 2.55425 1.12346 2.62873 1.12704L2.63713 1.12744H2.64554L36.8513 1.12744L36.8521 1.12744M0.430105 3.3415L36.8521 1.12744M36.8521 1.12744C37.4312 1.12604 38.0106 1.36455 38.4209 1.7733L36.8521 1.12744ZM38.4214 1.77373L53.8131 17.1685L38.4214 1.77373ZM5.21097 5.55929H4.86097V5.90929V69.2024V69.5524H5.21097H49.6784H50.0284V69.2024V65.6209V65.0737L49.5317 65.3031C46.9684 66.4869 44.1287 67.1417 41.127 67.1417C38.2665 67.1417 35.5591 66.5422 33.0901 65.4606L33.023 65.4312H32.9497H12.0521H12.0427L12.0333 65.4317C10.8819 65.4938 9.75774 64.4829 9.69776 63.3309C9.63778 62.1791 10.6508 61.0568 11.8025 60.9989L11.8071 60.9986C11.8053 60.9988 11.8043 60.9988 11.8045 60.9989C11.805 60.9989 11.8135 60.9987 11.8359 60.9985L11.959 60.9979C12.066 60.9975 12.2206 60.9971 12.4161 60.9969C12.8071 60.9963 13.3608 60.9959 14.023 60.9957C15.3474 60.9953 17.1049 60.9956 18.8597 60.9961C20.6145 60.9966 22.3666 60.9974 23.6799 60.9981L25.2663 60.999L25.7106 60.9992L25.8277 60.9993L25.8577 60.9993L25.8653 60.9993H25.8672H25.8677C25.8678 60.9993 25.8678 60.9993 25.868 60.6493L25.8678 60.9993L26.6528 60.9998L26.1285 60.4156C24.9868 59.1432 24.0044 57.7402 23.2125 56.2117L23.1146 56.0228H22.9018H12.0521H12.0427L12.0333 56.0233C10.8819 56.0854 9.75774 55.0744 9.69776 53.9225C9.63792 52.7735 10.6459 51.6538 11.7941 51.5909H11.8028H11.8207H11.8386H11.8566H11.8745H11.8924H11.9103H11.9282H11.9462H11.9641H11.982H12H12.0179H12.0358H12.0538H12.0717H12.0897H12.1076H12.1255H12.1435H12.1614H12.1794H12.1973H12.2153H12.2333H12.2512H12.2692H12.2871H12.3051H12.3231H12.341H12.359H12.377H12.3949H12.4129H12.4309H12.4489H12.4668H12.4848H12.5028H12.5208H12.5388H12.5567H12.5747H12.5927H12.6107H12.6287H12.6467H12.6647H12.6827H12.7007H12.7187H12.7367H12.7547H12.7727H12.7907H12.8087H12.8267H12.8447H12.8627H12.8807H12.8987H12.9168H12.9348H12.9528H12.9708H12.9888H13.0069H13.0249H13.0429H13.0609H13.079H13.097H13.115H13.133H13.1511H13.1691H13.1872H13.2052H13.2232H13.2413H13.2593H13.2774H13.2954H13.3134H13.3315H13.3495H13.3676H13.3856H13.4037H13.4217H13.4398H13.4579H13.4759H13.494H13.512H13.5301H13.5482H13.5662H13.5843H13.6023H13.6204H13.6385H13.6565H13.6746H13.6927H13.7108H13.7288H13.7469H13.765H13.7831H13.8011H13.8192H13.8373H13.8554H13.8735H13.8916H13.9096H13.9277H13.9458H13.9639H13.982H14.0001H14.0182H14.0363H14.0544H14.0725H14.0906H14.1087H14.1267H14.1448H14.1629H14.181H14.1992H14.2173H14.2354H14.2535H14.2716H14.2897H14.3078H14.3259H14.344H14.3621H14.3802H14.3983H14.4165H14.4346H14.4527H14.4708H14.4889H14.507H14.5252H14.5433H14.5614H14.5795H14.5976H14.6158H14.6339H14.652H14.6701H14.6883H14.7064H14.7245H14.7427H14.7608H14.7789H14.7971H14.8152H14.8333H14.8515H14.8696H14.8877H14.9059H14.924H14.9421H14.9603H14.9784H14.9966H15.0147H15.0328H15.051H15.0691H15.0873H15.1054H15.1236H15.1417H15.1599H15.178H15.1961H15.2143H15.2324H15.2506H15.2687H15.2869H15.3051H15.3232H15.3414H15.3595H15.3777H15.3958H15.414H15.4321H15.4503H15.4684H15.4866H15.5048H15.5229H15.5411H15.5592H15.5774H15.5956H15.6137H15.6319H15.6501H15.6682H15.6864H15.7045H15.7227H15.7409H15.759H15.7772H15.7954H15.8135H15.8317H15.8499H15.868H15.8862H15.9044H15.9226H15.9407H15.9589H15.9771H15.9952H16.0134H16.0316H16.0498H16.0679H16.0861H16.1043H16.1224H16.1406H16.1588H16.177H16.1951H16.2133H16.2315H16.2497H16.2679H16.286H16.3042H16.3224H16.3406H16.3587H16.3769H16.3951H16.4133H16.4315H16.4496H16.4678H16.486H16.5042H16.5224H16.5405H16.5587H16.5769H16.5951H16.6133H16.6314H16.6496H16.6678H16.686H16.7042H16.7224H16.7405H16.7587H16.7769H16.7951H16.8133H16.8314H16.8496H16.8678H16.886H16.9042H16.9224H16.9405H16.9587H16.9769H16.9951H17.0133H17.0315H17.0497H17.0678H17.086H17.1042H17.1224H17.1406H17.1588H17.1769H17.1951H17.2133H17.2315H17.2497H17.2679H17.286H17.3042H17.3224H17.3406H17.3588H17.377H17.3951H17.4133H17.4315H17.4497H17.4679H17.4861H17.5042H17.5224H17.5406H17.5588H17.577H17.5951H17.6133H17.6315H17.6497H17.6679H17.6861H17.7042H17.7224H17.7406H17.7588H17.777H17.7951H17.8133H17.8315H17.8497H17.8679H17.886H17.9042H17.9224H17.9406H17.9587H17.9769H17.9951H18.0133H18.0315H18.0496H18.0678H18.086H18.1042H18.1223H18.1405H18.1587H18.1769H18.195H18.2132H18.2314H18.2496H18.2677H18.2859H18.3041H18.3222H18.3404H18.3586H18.3767H18.3949H18.4131H18.4313H18.4494H18.4676H18.4858H18.5039H18.5221H18.5403H18.5584H18.5766H18.5947H18.6129H18.6311H18.6492H18.6674H18.6856H18.7037H18.7219H18.74H18.7582H18.7764H18.7945H18.8127H18.8308H18.849H18.8671H18.8853H18.9035H18.9216H18.9398H18.9579H18.9761H18.9942H19.0124H19.0305H19.0487H19.0668H19.085H19.1031H19.1213H19.1394H19.1576H19.1757H19.1939H19.212H19.2301H19.2483H19.2664H19.2846H19.3027H19.3208H19.339H19.3571H19.3753H19.3934H19.4115H19.4297H19.4478H19.4659H19.4841H19.5022H19.5203H19.5385H19.5566H19.5747H19.5928H19.611H19.6291H19.6472H19.6653H19.6835H19.7016H19.7197H19.7378H19.756H19.7741H19.7922H19.8103H19.8284H19.8465H19.8647H19.8828H19.9009H19.919H19.9371H19.9552H19.9733H19.9914H20.0095H20.0276H20.0457H20.0639H20.082H20.1001H20.1182H20.1363H20.1544H20.1725H20.1905H20.2086H20.2267H20.2448H20.2629H20.281H20.2991H20.3172H20.3353H20.3534H20.3715H20.3895H20.4076H20.4257H20.4438H20.4619H20.4799H20.498H20.5161H20.5342H20.5523H20.5703H20.5884H20.6065H20.6245H20.6426H20.6607H20.6787H20.6968H20.7149H20.7329H20.751H20.7691H20.7871H20.8052H20.8232H20.8413H20.8593H20.8774H20.8954H20.9135H20.9315H20.9496H20.9676H20.9857H21.0037H21.0218H21.0398H21.0578H21.4901L21.4002 51.1682C21.1126 49.815 20.9536 48.3995 20.9536 46.9643V46.6143H20.6036H12.0521H12.0427L12.0333 46.6148C10.8819 46.677 9.75774 45.666 9.69776 44.5141C9.63778 43.3622 10.6508 42.2399 11.8025 42.182L11.8033 42.182C11.8036 42.182 11.8094 42.1819 11.8239 42.1817L11.9077 42.1811C11.9807 42.1807 12.0854 42.1803 12.2177 42.18C12.4821 42.1794 12.8552 42.1791 13.3007 42.1789C14.1916 42.1785 15.3712 42.1787 16.5481 42.1793C17.725 42.1798 18.8991 42.1806 19.779 42.1813L20.8418 42.1821L21.1393 42.1824L21.2177 42.1825L21.2378 42.1825L21.2429 42.1825H21.2442H21.2445C21.2446 42.1825 21.2446 42.1825 21.2449 41.8325L21.2446 42.1825L21.5156 42.1827L21.5837 41.9204C21.9655 40.4496 22.5238 39.0425 23.2123 37.7172L23.478 37.2059H22.9018H12.0521H12.0425L12.0328 37.2064C10.8805 37.2701 9.75443 36.2586 9.6944 35.1058C9.63451 33.9557 10.6445 32.8353 11.7938 32.774H26.6697H26.814L26.9164 32.6724C30.5677 29.0463 35.5986 26.7868 41.127 26.7868C44.1292 26.7868 46.9648 27.4656 49.5316 28.6522L50.0284 28.8819V28.3345V22.1602V21.8102H49.6784H35.9962C34.8463 21.8101 33.7808 20.7446 33.7807 19.5943V5.90929V5.55929H33.4307H5.21097ZM38.8091 8.41491L38.2116 7.81728V8.66237V17.0284V17.3784H38.5616H46.9259H47.7708L47.1735 16.7809L38.8091 8.41491ZM54.616 53.8517L54.9041 54.6044L55.2575 53.8801C56.2755 51.7935 56.8696 49.4551 56.8696 46.9643C56.8696 38.2378 49.8518 31.2187 41.127 31.2187C32.4022 31.2187 25.3844 38.2378 25.3844 46.9643C25.3844 49.4551 25.9785 51.7935 26.9965 53.8801L27.3499 54.6044L27.638 53.8517C28.4196 51.8091 29.8114 50.0534 31.6131 48.9176L31.849 48.7689L31.7568 48.5058C31.4004 47.4888 31.2153 46.3922 31.2153 45.2537C31.2153 39.8087 35.6834 35.3399 41.127 35.3399C46.5706 35.3399 51.0387 39.8087 51.0387 45.2537C51.0387 46.3922 50.8536 47.4888 50.4972 48.5058L50.405 48.7689L50.6409 48.9176C52.4426 50.0534 53.8344 51.8091 54.616 53.8517ZM34.5717 52.6631L34.3788 52.4919L34.1582 52.6253C32.5958 53.5701 31.3704 55.4172 31.3704 57.5221V59.1525V59.3246L31.5066 59.4296C34.1637 61.4794 37.4942 62.7099 41.127 62.7099C44.7598 62.7099 48.0903 61.4794 50.7474 59.4296L50.8836 59.3246V59.1525V57.5221C50.8836 55.4172 49.6582 53.5701 48.0958 52.6253L47.8752 52.4919L47.6823 52.6631C45.9289 54.2199 43.6343 55.1675 41.127 55.1675C38.6197 55.1675 36.3251 54.2199 34.5717 52.6631ZM46.6079 45.2537C46.6079 42.1957 44.1844 39.7718 41.127 39.7718C38.0695 39.7718 35.6461 42.1957 35.6461 45.2537C35.6461 48.3116 38.0695 50.7356 41.127 50.7356C44.1845 50.7356 46.6079 48.3116 46.6079 45.2537Z" stroke="white" stroke-width="0.7"/>
</svg>
