<svg width="25" height="22" viewBox="0 0 25 22" fill="none" xmlns="http://www.w3.org/2000/svg">
<path d="M11 0.55957C10.0878 0.55957 9.25936 0.975325 8.64844 1.58357C8.03752 2.19182 7.59634 2.9738 7.25 3.84757C6.65907 5.33839 6.3519 7.12672 6.27344 8.87957C4.88508 9.06165 3.68924 9.30221 2.75781 9.60757C2.20592 9.78851 1.74423 9.98317 1.34375 10.2636C0.943269 10.544 0.5 11.0096 0.5 11.7036C0.5 12.2126 0.768887 12.6193 1.03906 12.8796C1.30924 13.1398 1.6123 13.3207 1.95313 13.4796C2.63478 13.7973 3.48959 14.0342 4.53125 14.2396C6.61458 14.6503 9.41042 14.8956 12.5 14.8956C15.5896 14.8956 18.3854 14.6503 20.4688 14.2396C21.5104 14.0342 22.3652 13.7973 23.0469 13.4796C23.3877 13.3207 23.6908 13.1398 23.9609 12.8796C24.2311 12.6193 24.5 12.2126 24.5 11.7036C24.5 11.0096 24.0567 10.544 23.6563 10.2636C23.2558 9.98317 22.7941 9.78851 22.2422 9.60757C21.3108 9.30221 20.1149 9.06165 18.7266 8.87957C18.6481 7.12672 18.3409 5.33839 17.75 3.84757C17.4037 2.9738 16.9625 2.19182 16.3516 1.58357C15.7406 0.975325 14.9122 0.55957 14 0.55957C13.5502 0.55957 13.3306 0.685635 13.0703 0.79957C12.8996 0.874289 12.7304 0.95659 12.5625 1.03957C12.4827 1.01192 12.3679 0.972493 12.1484 0.87157C11.8754 0.745992 11.5305 0.55957 11 0.55957ZM14.0547 2.61557C14.0516 2.61659 14.0671 2.61429 14.0625 2.61557C14.3831 2.6305 14.6449 2.74869 14.9531 3.05557C15.2823 3.38332 15.6233 3.92934 15.8984 4.62357C16.1271 5.20048 16.3045 5.87849 16.4375 6.59957C15.6733 6.91581 14.4646 7.21557 12.5 7.21557C10.5354 7.21557 9.32667 6.91581 8.5625 6.59957C8.69552 5.87849 8.87289 5.20048 9.10156 4.62357C9.37674 3.92934 9.71768 3.38332 10.0469 3.05557C10.1261 2.97671 10.1987 2.94381 10.2734 2.88757C10.3336 3.10433 10.4619 3.29471 10.6385 3.42922C10.815 3.56373 11.03 3.63485 11.25 3.63157C12.0666 3.63157 12.6267 3.27941 13.1641 3.01557C13.4328 2.88365 13.6811 2.75764 13.8594 2.67957C13.9454 2.64191 14.0158 2.62554 14.0547 2.61557ZM8.3125 8.67957C9.31162 9.01484 10.6593 9.26357 12.5 9.26357C14.3407 9.26357 15.6884 9.01484 16.6875 8.67957C16.7018 8.91394 16.7131 9.14275 16.7188 9.37557C16.546 9.4562 16.3072 9.55531 15.9453 9.64757C15.0903 9.86554 13.8401 10.0316 12.5 10.0316C11.1599 10.0316 9.90969 9.86554 9.05469 9.64757C8.69279 9.55531 8.45402 9.4562 8.28125 9.37557C8.28686 9.14275 8.29821 8.91394 8.3125 8.67957ZM6.82813 10.8796C6.95122 10.9789 7.07294 11.0562 7.20313 11.1276C7.59411 11.3419 8.03969 11.4963 8.57031 11.6316C9.63155 11.9021 11.0051 12.0796 12.5 12.0796C13.9949 12.0796 15.3685 11.9021 16.4297 11.6316C16.9603 11.4963 17.4059 11.3419 17.7969 11.1276C17.9271 11.0562 18.0488 10.9789 18.1719 10.8796C19.614 11.057 20.8321 11.297 21.6328 11.5596C21.7839 11.6091 21.8175 11.646 21.9375 11.6956C21.4914 11.8753 20.9099 12.0691 20.0859 12.2316C18.1881 12.6057 15.4855 12.8476 12.5 12.8476C9.51445 12.8476 6.81195 12.6057 4.91406 12.2316C4.09011 12.0691 3.50861 11.8753 3.0625 11.6956C3.18253 11.646 3.2161 11.6091 3.36719 11.5596C4.16795 11.297 5.38599 11.057 6.82813 10.8796ZM6.17188 15.1516C6.00804 15.164 5.84972 15.2176 5.71091 15.3075C5.57209 15.3975 5.45705 15.5211 5.37596 15.6674C5.29487 15.8137 5.25023 15.9782 5.24597 16.1463C5.24172 16.3145 5.27798 16.4812 5.35156 16.6316C5.94015 17.8424 6.8182 18.8971 7.79688 19.6876C8.77556 20.478 9.85412 21.0396 11 21.0396C11.1549 21.0381 11.3074 20.9997 11.4453 20.9276L12.5 20.3836L13.5547 20.9276C13.6927 20.9997 13.8451 21.0381 14 21.0396C15.1459 21.0396 16.2244 20.478 17.2031 19.6876C18.1818 18.8971 19.0599 17.8424 19.6484 16.6316C19.7331 16.458 19.7679 16.2634 19.7487 16.0704C19.7295 15.8773 19.6572 15.6939 19.5401 15.5413C19.423 15.3887 19.2661 15.2734 19.0875 15.2086C18.9089 15.1439 18.716 15.1324 18.5313 15.1756C16.6201 15.6215 14.5542 15.6692 12.5 15.6636C10.4458 15.6692 8.37987 15.6215 6.46875 15.1756C6.37152 15.1524 6.27145 15.1444 6.17188 15.1516ZM8.51563 17.5516C9.86838 17.6825 11.2079 17.7151 12.5 17.7116C13.7921 17.7152 15.1316 17.6825 16.4844 17.5516C16.3088 17.728 16.1444 17.9314 15.9609 18.0796C15.2831 18.6271 14.6055 18.9015 14.1563 18.9516L12.9453 18.3276C12.807 18.2571 12.6545 18.2204 12.5 18.2204C12.3455 18.2204 12.1931 18.2571 12.0547 18.3276L10.8438 18.9516C10.3945 18.9015 9.71692 18.6271 9.03906 18.0796C8.85563 17.9314 8.6912 17.728 8.51563 17.5516Z" fill="white"/>
</svg>
