<svg width="79" height="107" viewBox="0 0 79 107" fill="none" xmlns="http://www.w3.org/2000/svg">
<path d="M66.5778 29.1574C66.5778 25.3576 63.4667 22.2558 59.6556 22.2558C58.1778 22.2558 56.8556 22.7211 55.6889 23.4965V20.9375C55.6889 18.9213 55.1444 16.9826 54.2111 15.2766V9.22801C54.2111 8.84028 54.5222 8.53009 54.9111 8.53009H61.2111C63.5444 8.53009 65.4889 6.59143 65.4889 4.26505C65.4889 1.93866 63.5444 0 61.2111 0H54.9111C50.4778 0 46.7444 3.10185 45.8889 7.28935C44.2556 5.35069 41.7667 4.1875 39.1222 4.1875H30.8778C28.2333 4.1875 25.8222 5.35069 24.1111 7.28935C23.2556 3.10185 19.6 0 15.1667 0H8.86667C6.53333 0 4.58889 1.93866 4.58889 4.26505C4.58889 6.59143 6.53333 8.53009 8.86667 8.53009H15.1667C15.5556 8.53009 15.8667 8.84028 15.8667 9.22801V15.2766C14.9333 16.9826 14.3889 18.9213 14.3889 20.9375V23.4965C13.3 22.7211 11.9 22.2558 10.4222 22.2558C6.61111 22.2558 3.5 25.3576 3.5 29.1574C3.5 32.2593 5.52222 34.8183 8.32222 35.7488L0 43.9688L14.7778 58.7025C20.3778 64.2859 27.6889 67.0775 35 67.0775C42.3111 67.0775 49.7 64.2859 55.2222 58.7025L70 43.9688L61.7556 35.7488C64.5556 34.8183 66.5778 32.1817 66.5778 29.1574ZM59.5778 25.2801C61.7556 25.2801 63.4667 27.0637 63.4667 29.1574C63.4667 31.3287 61.6778 33.0347 59.5778 33.0347C59.3444 33.0347 59.1889 33.0347 59.0333 32.9572L55.7667 29.7002C55.7667 29.5451 55.6889 29.3125 55.6889 29.1574C55.6889 26.9861 57.4778 25.2801 59.5778 25.2801ZM48.6889 9.22801C48.6889 5.81597 51.4889 3.10185 54.8333 3.10185H61.1333C61.8333 3.10185 62.3778 3.64468 62.3778 4.34259C62.3778 5.04051 61.8333 5.58333 61.1333 5.58333H54.8333C52.8111 5.58333 51.1 7.21181 51.1 9.30556V11.6319C50.3222 11.0116 49.5444 10.5463 48.6111 10.081L48.6889 9.22801ZM30.8778 7.21181H39.1222C41.6111 7.21181 43.8667 8.84028 44.6444 11.1667H25.3556C26.1333 8.84028 28.3889 7.21181 30.8778 7.21181ZM23.0222 12.7176H46.9778C50.3222 14.0359 52.6556 17.2928 52.6556 20.9375V26.0556C52.6556 26.1331 52.5778 26.2106 52.5 26.2106H17.5C17.4222 26.2106 17.3444 26.1331 17.3444 26.0556V20.9375C17.3444 17.2153 19.6778 13.9583 23.0222 12.7176ZM15.1667 5.50579H8.86667C8.16667 5.50579 7.62222 4.96296 7.62222 4.26505C7.62222 3.56713 8.16667 3.02431 8.86667 3.02431H15.1667C18.5889 3.02431 21.3889 5.81597 21.3889 9.22801V10.1586C20.5333 10.5463 19.6778 11.0891 18.9 11.7095V9.22801C18.8222 7.13426 17.1889 5.50579 15.1667 5.50579ZM6.45556 29.1574C6.45556 26.9861 8.24444 25.2801 10.3444 25.2801C12.4444 25.2801 14.2333 27.0637 14.2333 29.1574C14.2333 29.39 14.2333 29.5451 14.1556 29.7002L10.8889 32.9572C10.7333 32.9572 10.5 33.0347 10.3444 33.0347C8.24444 33.0347 6.45556 31.3287 6.45556 29.1574ZM65.7222 43.9688L53.1222 56.4537C43.1667 66.3796 26.9111 66.3796 16.8778 56.4537L4.27778 43.9688L17.8111 30.4757C18.2778 30.0104 18.6667 29.6227 19.1333 29.235H50.7889C51.2556 29.6227 51.7222 30.0104 52.1111 30.4757L65.7222 43.9688Z" fill="white"/>
<path d="M31.0325 34.9736C32.277 34.9736 33.3659 33.9655 33.3659 32.6472C33.3659 31.4064 32.3548 30.3208 31.0325 30.3208C29.7103 30.3208 28.6992 31.3289 28.6992 32.6472C28.6992 33.9655 29.7881 34.9736 31.0325 34.9736Z" fill="white"/>
<path d="M38.9661 34.9736C40.2106 34.9736 41.2995 33.9655 41.2995 32.6472C41.2995 31.4064 40.2884 30.3208 38.9661 30.3208C37.6439 30.3208 36.6328 31.3289 36.6328 32.6472C36.6328 33.9655 37.6439 34.9736 38.9661 34.9736Z" fill="white"/>
<path d="M38.6546 48.0788C37.099 48.0788 35.7768 46.7605 35.7768 45.2096V40.9446H40.6768C41.9213 40.9446 42.9324 39.9365 42.9324 38.6957V37.5325C42.9324 36.2918 41.9213 35.2837 40.6768 35.2837H29.3213C28.0768 35.2837 27.0657 36.2918 27.0657 37.5325V38.7733C27.0657 40.014 28.0768 41.0221 29.3213 41.0221H34.2213V45.2872C34.2213 46.8381 32.899 48.1564 31.3435 48.1564C29.7879 48.1564 28.4657 46.8381 28.4657 45.2872H26.9102C26.9102 47.6911 28.8546 49.6297 31.2657 49.6297C32.7435 49.6297 34.0657 48.8543 34.9213 47.6911C35.699 48.8543 37.0213 49.6297 38.5768 49.6297C40.9879 49.6297 42.9324 47.6911 42.9324 45.2872H41.3768C41.4546 46.7605 40.2102 48.0788 38.6546 48.0788Z" fill="white"/>
<path d="M31.4217 21.1701L30.8772 24.5822C30.7994 24.8924 30.955 25.125 31.1883 25.3576C31.3439 25.4352 31.4994 25.5127 31.655 25.5127C31.8105 25.5127 31.8883 25.5127 32.0439 25.4352L35.0772 23.8067L38.1883 25.3576C38.4217 25.5127 38.7328 25.4352 38.9661 25.2801C39.1994 25.125 39.2772 24.8148 39.2772 24.5046L38.655 21.0926L41.1439 18.6111C41.3772 18.3785 41.455 18.0683 41.2994 17.8356C41.2217 17.5255 40.9883 17.3704 40.6772 17.2928L37.255 16.8275L35.6994 13.7257C35.5439 13.4931 35.3105 13.2604 34.9994 13.338C34.6883 13.338 34.455 13.4931 34.2994 13.8032L32.8217 16.9051L29.3994 17.4479C29.0883 17.5255 28.855 17.6806 28.7772 17.9907C28.6994 18.3009 28.7772 18.5336 29.0105 18.7662L31.4217 21.1701ZM33.3661 18.3785C33.5994 18.3785 33.8328 18.1458 33.9105 17.9907L34.9217 15.897L36.0105 17.9907C36.0883 18.2234 36.3217 18.3785 36.555 18.3785L38.8883 18.6887L37.255 20.3171C37.0994 20.4722 37.0217 20.7824 37.0217 21.015L37.4105 23.3414L35.3105 22.2558C35.0772 22.1782 34.8439 22.1782 34.6105 22.2558L32.5105 23.3414L32.8994 21.015C32.9772 20.7824 32.8217 20.5498 32.6661 20.3171L30.955 18.6887L33.3661 18.3785Z" fill="white"/>
<path d="M47.4701 72.781C38.4901 72.781 23.1242 78.1631 19.4657 81.8175C19.0666 82.2162 18.867 82.8807 19.0666 83.4122C19.1996 84.0102 41.683 106.336 41.816 106.469C42.4812 107.133 43.5455 107.133 44.2107 106.469C48.4014 102.283 53.7229 83.08 53.0577 75.7046L70.02 58.7611C70.6852 59.4255 71.683 59.8242 72.5477 59.0933L78.4014 54.1099C79.1331 53.5119 79.1996 52.3159 78.4679 51.6514L74.1442 47.4654C73.479 46.8009 72.3482 46.8674 71.683 47.5318L66.6941 53.379C65.9624 54.2428 66.3615 55.173 67.0267 55.9039L49.9978 72.9139C49.1996 72.781 48.4014 72.781 47.4701 72.781ZM73.0799 51.1199L74.6763 52.7146L71.4169 55.5052L70.2861 54.3757L73.0799 51.1199ZM68.0244 57.2993L68.4901 57.7644L44.9424 81.286C44.2107 82.0169 45.3415 83.2129 46.1397 82.482L49.5987 79.0268C49.0001 85.8043 45.5411 98.0966 42.7473 102.748C42.4812 102.482 42.2151 102.216 41.8825 101.884C40.2196 100.223 37.3593 97.4322 34.3659 94.3757L36.8936 92.4488C37.7584 91.7843 36.7606 90.4554 35.8958 91.1199L33.1686 93.1797C32.969 92.9803 32.7695 92.781 32.5034 92.5152L34.5655 89.791C35.2306 88.9272 33.9003 87.9305 33.2351 88.7943L31.306 91.3192C27.9136 87.9305 24.7207 84.7411 23.0577 83.08C27.5145 80.2229 39.1553 76.2361 46.8049 76.0368L43.2129 79.6248C42.4812 80.3557 43.612 81.5518 44.4103 80.8209L68.0244 57.2993Z" fill="white"/>
<path d="M41.4164 81.8838C40.0195 81.8838 38.8887 83.0134 38.8887 84.4087C38.8887 85.8041 40.0195 86.9336 41.4164 86.9336C42.8133 86.9336 43.9441 85.8041 43.9441 84.4087C43.9441 83.0134 42.7468 81.8838 41.4164 81.8838ZM41.4164 85.2061C40.9508 85.2061 40.5516 84.8074 40.5516 84.3423C40.5516 83.8771 40.9508 83.4785 41.4164 83.4785C41.882 83.4785 42.2811 83.8771 42.2811 84.3423C42.2811 84.8074 41.8155 85.2061 41.4164 85.2061Z" fill="white"/>
</svg>
