<svg width="70" height="91" viewBox="0 0 70 91" fill="none" xmlns="http://www.w3.org/2000/svg">
<path d="M24.0592 45.207H21.8449V38.6741C21.8449 37.7862 21.1243 37.0643 20.236 37.0643H19.3358C18.4477 37.0643 17.7259 37.786 17.7259 38.6741V45.207H15.5117V38.6741C15.5117 36.5666 17.2274 34.85 19.3358 34.85H20.236C22.3444 34.85 24.06 36.5666 24.0592 38.674V38.6741V45.207Z" stroke="white" stroke-width="0.5"/>
<path d="M24.0592 75.0635H21.8449V68.5306C21.8449 67.6427 21.1243 66.9208 20.236 66.9208H19.3358C18.4477 66.9208 17.7259 67.6425 17.7259 68.5306V75.0635H15.5117V68.5306C15.5117 66.4231 17.2274 64.7066 19.3358 64.7066H20.236C22.3444 64.7066 24.06 66.4231 24.0592 68.5305V68.5306V75.0635Z" stroke="white" stroke-width="0.5"/>
<path d="M24.0592 59.6829H21.8449V53.15C21.8449 52.2621 21.1243 51.5402 20.236 51.5402H19.3358C18.4477 51.5402 17.7259 52.2619 17.7259 53.15V59.6829H15.5117V53.15C15.5117 51.0425 17.2274 49.326 19.3358 49.326H20.236C22.3444 49.326 24.06 51.0425 24.0592 53.1499V53.15V59.6829Z" stroke="white" stroke-width="0.5"/>
<path d="M37.6295 45.207H35.4152V38.6741C35.4152 37.786 34.6935 37.0643 33.8054 37.0643H32.9052C32.0179 37.0643 31.2963 37.7861 31.2963 38.6741V45.207H29.082V38.6741C29.082 36.5665 30.7978 34.85 32.9052 34.85H33.8054C35.9147 34.85 37.6303 36.5666 37.6295 38.674V38.6741V45.207Z" stroke="white" stroke-width="0.5"/>
<path d="M37.6295 59.6829H35.4152V53.15C35.4152 52.2619 34.6935 51.5402 33.8054 51.5402H32.9052C32.0179 51.5402 31.2963 52.262 31.2963 53.15V59.6829H29.082V53.15C29.082 51.0424 30.7978 49.326 32.9052 49.326H33.8054C35.9147 49.326 37.6303 51.0425 37.6295 53.1499V53.15V59.6829Z" stroke="white" stroke-width="0.5"/>
<path d="M7.62367 21.1193L7.52551 21.0773L7.42734 21.1193L3.66888 22.7239L4.0325 18.6527L4.04199 18.5464L3.97184 18.466L1.2854 15.3881L5.26877 14.4762L5.37275 14.4524L5.42752 14.3608L7.52551 10.8543L9.6235 14.3608L9.67827 14.4524L9.78224 14.4762L13.7656 15.3881L11.0792 18.466L11.009 18.5464L11.0185 18.6527L11.3821 22.7239L7.62367 21.1193ZM7.74089 15.5254L7.52641 15.1672L7.31193 15.5254L6.78863 16.3992L5.79431 16.6261L5.38676 16.7191L5.66151 17.0341L6.33156 17.8025L6.24146 18.8173L6.20454 19.2332L6.58857 19.0694L7.52555 18.6697L8.46342 19.0694L8.84772 19.2332L8.81044 18.8171L8.71953 17.8024L9.38951 17.0341L9.66415 16.7192L9.25679 16.6261L8.26422 16.3992L7.74089 15.5254Z" stroke="white" stroke-width="0.5"/>
<path d="M19.6186 13.5928L19.5203 13.5507L19.4219 13.5928L15.6622 15.2022L16.029 11.129L16.0386 11.0225L15.9682 10.942L13.2764 7.86524L17.2643 6.95506L17.3685 6.93127L17.4233 6.83948L19.5194 3.32847L21.6163 6.83952L21.6711 6.93127L21.7753 6.95506L25.7624 7.86524L23.0714 10.942L23.001 11.0225L23.0106 11.129L23.3738 15.1526L21.6706 14.471L19.6186 13.5928ZM19.7349 8.00715L19.5203 7.64802L19.3057 8.00715L18.7842 8.8798L17.7947 9.10488L17.3863 9.19777L17.6619 9.51315L18.3307 10.2785L18.239 11.2903L18.2012 11.7071L18.5861 11.5428L19.5203 11.144L20.4554 11.5428L20.8402 11.7069L20.8025 11.2903L20.7108 10.2785L21.3796 9.51315L21.6552 9.19771L21.2467 9.10487L20.2563 8.87978L19.7349 8.00715Z" stroke="white" stroke-width="0.5"/>
<path d="M33.5501 11.0497L33.4515 11.0073L33.3528 11.0497L29.5912 12.6662L29.963 8.58693L29.9727 8.48013L29.902 8.39947L27.203 5.31975L31.1969 4.41463L31.3016 4.39091L31.3565 4.29869L33.4507 0.780778L35.5465 4.29876L35.6014 4.39092L35.706 4.41463L39.6455 5.3074L36.9973 8.40075L36.9286 8.48097L36.9382 8.58613L37.3116 12.6653L33.5501 11.0497ZM33.6672 5.47067L33.4527 5.1101L33.2377 5.47038L32.7181 6.34103L31.7296 6.56524L31.3202 6.6581L31.5969 6.97382L32.2645 7.73544L32.172 8.74594L32.1338 9.16374L32.5194 8.99851L33.4515 8.59918L34.3835 8.99851L34.7692 9.16374L34.7309 8.74594L34.6385 7.73553L35.3068 6.97394L35.584 6.6581L35.1742 6.56523L34.185 6.34105L33.6672 5.47067Z" stroke="white" stroke-width="0.5"/>
<path d="M47.4291 13.8427L47.3304 13.8002L47.2316 13.8427L43.4672 15.4615L43.8454 11.383L43.8554 11.2758L43.7844 11.195L41.0824 8.11716L45.0776 7.21209L45.1824 7.18836L45.2373 7.096L47.3305 3.57424L49.4253 7.09519L49.4802 7.18747L49.585 7.21119L53.5802 8.11625L50.8782 11.1941L50.8072 11.2749L50.8171 11.382L51.1937 15.4616L47.4291 13.8427ZM47.5472 8.27015L47.3325 7.90857L47.1174 8.26986L46.5997 9.13925L45.6125 9.36171L45.2018 9.45427L45.4796 9.77058L46.147 10.5303L46.0545 11.537L46.0161 11.9555L46.4022 11.7895L47.3305 11.3904L48.2605 11.7896L48.6464 11.9552L48.608 11.537L48.5156 10.5303L49.1829 9.77058L49.4608 9.45427L49.0501 9.36171L48.0631 9.1393L47.5472 8.27015Z" stroke="white" stroke-width="0.5"/>
<path d="M55.7023 19.1187L55.7123 19.0113L55.6411 18.9303L52.9329 15.8514L56.9341 14.9514L57.0393 14.9277L57.0943 14.835L59.1871 11.3064L61.2784 14.8349L61.3333 14.9277L61.4386 14.9514L65.4414 15.8514L62.7316 18.9303L62.6603 19.0113L62.6704 19.1187L63.0519 23.2028L59.2862 21.5792L59.1873 21.5365L59.0883 21.5792L55.3208 23.2029L55.7023 19.1187ZM59.4032 16.0113L59.1881 15.6485L58.9731 16.0113L58.459 16.8784L57.474 17.1L57.0631 17.1924L57.341 17.5088L58.0063 18.2666L57.9123 19.2712L57.8731 19.6909L58.2602 19.5241L59.188 19.1243L60.1141 19.524L60.5014 19.6912L60.4621 19.2712L60.3681 18.2666L61.0335 17.5088L61.3113 17.1925L60.9006 17.1L59.9173 16.8785L59.4032 16.0113Z" stroke="white" stroke-width="0.5"/>
<path d="M56.6308 44.687V44.9075L56.8495 44.9351C63.6496 45.7926 68.9308 51.6025 68.9316 58.6318C68.9316 61.0355 67.8617 64.8523 66.6089 68.4866C65.3604 72.1086 63.9453 75.508 63.2809 77.0589L63.2809 77.059C60.3818 83.8301 58.4699 87.1939 57.204 88.862C56.5713 89.6957 56.1115 90.0902 55.7848 90.2785C55.4754 90.4569 55.2759 90.4568 55.1191 90.4568H55.1138C54.9909 90.4568 54.8568 90.4561 54.672 90.3867C54.4832 90.3158 54.2256 90.1667 53.8832 89.8424C53.1939 89.1897 52.1926 87.8582 50.7455 85.1479L50.6749 85.0157H50.5249H40.5954H27.0233H9.8332H3.75V82.8014H9.8332H10.0832V82.5514V31.8849V31.6349H9.8332H6.46423V29.4207H14.3569H14.6069V29.1707V21.9346V21.6846H14.3569H12.792V19.4703H14.3569H52.3552H53.922V21.6846H52.3552H52.1052V21.9346V29.1707V29.4207H52.3552H60.2497V31.6349H56.8808H56.6308V31.8849V44.687ZM17.0711 21.6836H16.8211V21.9336V29.1698V29.4198H17.0711H49.641H49.891V29.1698V21.9336V21.6836H49.641H17.0711ZM29.4876 82.5505V82.8005H29.7376H37.8811H38.1311V82.5505V66.2661V66.0161H37.8811H29.7376H29.4876V66.2661V82.5505ZM40.3454 82.5505V82.8005L40.5954 82.8005L49.1524 82.8014L49.5503 82.8015L49.3777 82.443C48.6558 80.9432 47.8494 79.1661 46.9476 77.059L46.9476 77.0589C46.2832 75.508 44.8681 72.1086 43.6196 68.4866C42.3668 64.8523 41.2968 61.0355 41.2968 58.6318C41.2968 52.7039 45.0569 47.6485 50.3136 45.6913L50.2264 45.207H48.9872V38.6741C48.9872 37.7859 48.2653 37.0643 47.3764 37.0643H46.4771C45.5898 37.0643 44.8682 37.7861 44.8682 38.6741V45.207H42.654V38.6741C42.654 36.5665 44.3697 34.8501 46.4771 34.8501H47.3764C49.4849 34.8501 51.2014 36.5666 51.2014 38.6741V45.0643V45.3911L51.5168 45.3056C52.3759 45.0728 53.2661 44.9218 54.1823 44.8605L54.4156 44.8449V44.611V31.8849V31.6349H54.1656H33.3565H12.5474H12.2974V31.8849V82.5505V82.8005H12.5474H27.0233H27.2733V82.5505V63.8018H40.3454V82.5505ZM54.9198 87.802L55.1137 88.0405L55.3077 87.802C56.0525 86.8864 57.1355 84.9798 58.3349 82.5647C59.5382 80.1418 60.8692 77.1852 62.1091 74.1528C63.3488 71.1206 64.499 68.009 65.3398 65.2763C66.1778 62.5522 66.7172 60.1776 66.7174 58.6319C66.7174 52.2329 61.5127 47.0282 55.1138 47.0282C48.7167 47.0282 43.512 52.233 43.512 58.6318C43.512 60.1776 44.0512 62.5522 44.8892 65.2762C45.7299 68.009 46.88 71.1206 48.1198 74.1528C49.3596 77.1852 50.6905 80.1418 51.8936 82.5647C53.0928 84.9798 54.1755 86.8864 54.9198 87.802Z" stroke="white" stroke-width="0.5"/>
<path d="M48.7109 58.6318C48.7109 55.1012 51.5829 52.2283 55.1153 52.2283C58.646 52.2283 61.5188 55.1012 61.5188 58.6318C61.5188 62.1625 58.646 65.0353 55.1153 65.0353C51.5837 65.0353 48.7109 62.1625 48.7109 58.6318ZM50.9252 58.6309C50.9252 60.9413 52.8041 62.8202 55.1153 62.8202C57.4257 62.8202 59.3046 60.9413 59.3046 58.6309C59.3046 56.3205 57.4247 54.4417 55.1153 54.4417C52.8041 54.4417 50.9252 56.3205 50.9252 58.6309Z" stroke="white" stroke-width="0.5"/>
</svg>
