<svg width="62" height="90" viewBox="0 0 62 90" fill="none" xmlns="http://www.w3.org/2000/svg">
<path d="M30.9994 0C14.4024 0 0.900391 13.502 0.900391 30.099C0.900391 46.046 28.1974 87.369 29.3594 89.12C29.7244 89.669 30.3394 90 30.9994 90C31.6594 90 32.2754 89.669 32.6404 89.119C33.8014 87.368 61.0994 46.045 61.0994 30.098C61.0984 13.502 47.5964 0 30.9994 0ZM30.9994 84.416C25.0294 75.123 4.83839 42.751 4.83839 30.099C4.83839 15.674 16.5744 3.938 30.9994 3.938C45.4244 3.938 57.1604 15.674 57.1604 30.099C57.1604 42.747 36.9694 75.122 30.9994 84.416Z" fill="#009BDF"/>
<path d="M30.9999 14.1919C21.9499 14.1919 14.5859 21.5549 14.5859 30.6059C14.5859 39.6559 21.9489 47.0199 30.9999 47.0199C40.0519 47.0199 47.4149 39.6569 47.4149 30.6059C47.4149 21.5549 40.0519 14.1919 30.9999 14.1919ZM30.9999 43.0819C24.1209 43.0819 18.5239 37.4849 18.5239 30.6059C18.5239 23.7259 24.1209 18.1299 30.9999 18.1299C37.8799 18.1299 43.4769 23.7259 43.4769 30.6059C43.4769 37.4849 37.8799 43.0819 30.9999 43.0819Z" fill="#009BDF"/>
</svg>
