<svg width="70" height="66" viewBox="0 0 70 66" fill="none" xmlns="http://www.w3.org/2000/svg">
<path d="M46.3314 11.5031V11.8531H46.6814H58.5067C64.2981 11.8531 68.9725 16.5275 68.9725 22.319V50.5122C68.9725 56.3037 64.2981 60.978 58.5067 60.978H58.4346H58.151L58.0922 61.2554C57.6221 63.4716 55.6029 65.1602 53.1709 65.1602C50.8157 65.1602 48.7878 63.4749 48.2473 61.2456L48.1825 60.978H47.9072H22.2376H21.9541L21.8952 61.2554C21.4251 63.4716 19.406 65.1602 16.9739 65.1602C14.6187 65.1602 12.5908 63.4749 12.0503 61.2456L11.9855 60.978H11.7102H11.6381C5.84663 60.978 1.17227 56.3037 1.17227 50.5122V22.319C1.17227 16.5275 5.84663 11.8531 11.6381 11.8531H23.4634H23.8134V11.5031V8.90733C23.8134 4.63009 27.262 1.18151 31.5392 1.18151H38.6056C42.8828 1.18151 46.3314 4.63009 46.3314 8.90733V11.5031ZM41.4898 11.8531H41.8398V11.5031V8.90733C41.8398 7.12771 40.3852 5.67311 38.6056 5.67311H31.5392C29.7596 5.67311 28.305 7.12771 28.305 8.90733V11.5031V11.8531H28.655H41.4898ZM64.4708 50.8622H64.553V50.5122V22.319C64.553 19.0251 61.8726 16.3447 58.5788 16.3447H11.6381C8.34425 16.3447 5.66386 19.0251 5.66386 22.319V50.5122C5.66386 53.806 8.34425 56.4864 11.6381 56.4864H58.5067C61.683 56.4864 64.2889 53.9938 64.4708 50.8622Z" stroke="white" stroke-width="0.7"/>
<path d="M24.8428 44.4553C24.8428 46.5826 22.6552 48.4317 19.7849 48.4317C16.9145 48.4317 14.727 46.5826 14.727 44.4553C14.727 42.3281 16.9145 40.479 19.7849 40.479C22.6552 40.479 24.8428 42.3281 24.8428 44.4553Z" stroke="white" stroke-width="0.7"/>
<path d="M19.1923 28.2509L19.1924 28.2509L19.1907 28.2411C19.0846 27.6578 19.5105 27.0353 20.1985 26.919L29.0525 25.6232C29.7617 25.5692 30.3441 26.0437 30.3952 26.6049L30.3961 26.6154L30.3977 26.626L31.0467 30.8802L31.0465 30.8802L31.0483 30.89C31.1544 31.4733 30.7285 32.0958 30.0405 32.2121L21.1751 33.5095L21.1751 33.5093L21.1632 33.5115C20.5796 33.6176 19.9568 33.1912 19.8409 32.5026L19.1923 28.2509Z" stroke="white" stroke-width="0.7"/>
<path d="M46.1493 42.0512L46.1493 42.0513L46.1557 42.053C46.7656 42.2193 47.1557 42.894 46.992 43.4968C46.9919 43.4972 46.9918 43.4976 46.9917 43.498L45.8387 47.6055L45.8386 47.6055L45.8362 47.6152C45.6717 48.2731 45.0153 48.612 44.3961 48.4448L34.8094 45.6337L34.8095 45.6334L34.7958 45.63C34.1372 45.4654 33.7983 44.8078 33.9667 44.1881L35.12 40.0794L35.1201 40.0794L35.1226 40.0697C35.2871 39.4118 35.9435 39.0729 36.5627 39.2401L46.1493 42.0512Z" stroke="white" stroke-width="0.7"/>
<path d="M49.6156 24.4739C53.3186 25.0602 55.8027 27.8836 55.3645 30.6512C54.9262 33.4187 51.6914 35.3365 47.9883 34.7501C44.2853 34.1638 41.8012 31.3404 42.2394 28.5728C42.6777 25.8053 45.9125 23.8875 49.6156 24.4739Z" stroke="white" stroke-width="0.7"/>
</svg>
