<svg width="21" height="15" viewBox="0 0 21 15" fill="none" xmlns="http://www.w3.org/2000/svg">
<path d="M20.4437 12.0367C20.3328 12.5515 20.0649 13.0188 19.6774 13.3736C19.2898 13.7284 18.8018 13.9532 18.2812 14.0166C15.8026 14.2952 13.2927 14.2952 10.7941 14.2952C8.29554 14.2952 5.7882 14.2952 3.3046 14.0166C2.78421 13.9529 2.29649 13.7281 1.90917 13.3733C1.52186 13.0184 1.25418 12.5513 1.14332 12.0367C0.791016 10.5223 0.791016 8.86229 0.791016 7.29517C0.791016 5.72804 0.791016 4.06806 1.13832 2.54736C1.25057 2.03382 1.51899 1.56801 1.90642 1.21442C2.29385 0.860826 2.78115 0.636927 3.30085 0.57371C5.78071 0.295165 8.2868 0.293911 10.7854 0.295165C13.284 0.29642 15.7951 0.295165 18.2749 0.57371C18.7945 0.636992 19.2816 0.86094 19.6688 1.21454C20.056 1.56815 20.3242 2.03392 20.4362 2.54736C20.7848 4.06806 20.7873 5.72929 20.7873 7.29517C20.7873 8.86104 20.7923 10.5223 20.4437 12.0367ZM8.69282 4.5574V10.127L13.9811 7.34159L8.69282 4.5574Z" fill="white"/>
</svg>
