<svg width="79" height="95" viewBox="0 0 79 95" fill="none" xmlns="http://www.w3.org/2000/svg">
<path d="M78.7644 51.221L55.3664 33.452L76.9854 0.10199L38.5014 14.214L38.9494 8.27299L8.1684 19.289L8.1624 13.211C9.4514 12.833 10.5554 12.024 11.3044 10.891C12.1444 9.62199 12.4404 8.10199 12.1354 6.61299C11.5974 3.97099 9.2504 2.05499 6.5604 2.05499C6.1774 2.05499 5.7944 2.09399 5.4194 2.17099C2.3414 2.79899 0.3504 5.81199 0.9764 8.88799C1.3794 10.862 2.7904 12.432 4.6034 13.098L4.6874 94.281L8.2474 94.278L8.2094 58.675L26.6214 53.996L26.0664 60.729L78.7644 51.221ZM38.2074 18.111L68.1994 7.11399L50.5834 34.288L70.1624 49.156L32.3114 55.986L35.6734 51.696L38.2074 18.111ZM6.1304 5.65699C6.2714 5.62799 6.4154 5.61399 6.5604 5.61399C7.5674 5.61399 8.4464 6.33299 8.6484 7.32399C8.7624 7.88299 8.6524 8.45199 8.3374 8.92799C8.0214 9.40499 7.5404 9.72899 6.9824 9.84399C6.8394 9.87199 6.6964 9.88699 6.5524 9.88699C5.5444 9.88699 4.6644 9.16799 4.4624 8.17799C4.2284 7.02299 4.9774 5.89299 6.1304 5.65699ZM8.1714 23.068L34.9894 13.47L32.3174 48.876L8.2064 55.004L8.1714 23.068Z" fill="#009BDF"/>
</svg>
